<svg width="40" height="40" viewBox="0 0 40 40" fill="none" xmlns="http://www.w3.org/2000/svg">
<rect width="40" height="40" fill="white" style="mix-blend-mode:multiply"/>
<path d="M20 2.5C15.9428 2.52763 12.0213 3.96414 8.90626 6.56379C5.79124 9.16345 3.67631 12.7647 2.92325 16.7515C2.17019 20.7383 2.82581 24.8628 4.77794 28.4196C6.73008 31.9764 9.85743 34.7444 13.625 36.25C13.3718 34.593 13.3718 32.907 13.625 31.25L15.6875 22.5C15.3611 21.7076 15.1995 20.8569 15.2125 20C15.2125 17.575 16.625 15.75 18.375 15.75C18.692 15.7452 19.0063 15.809 19.2964 15.9371C19.5865 16.0651 19.8454 16.2543 20.0556 16.4917C20.2657 16.7292 20.422 17.0092 20.5138 17.3127C20.6056 17.6162 20.6308 17.9359 20.5875 18.25C20.5875 19.75 19.6375 22 19.1375 24.075C19.0299 24.462 19.0171 24.8692 19.1002 25.2621C19.1833 25.6551 19.3599 26.0222 19.6149 26.3325C19.87 26.6428 20.1961 26.887 20.5656 27.0445C20.935 27.2021 21.337 27.2683 21.7375 27.2375C24.8375 27.2375 27.2375 23.95 27.2375 19.225C27.2687 18.2649 27.0994 17.3088 26.7404 16.4177C26.3814 15.5266 25.8407 14.7202 25.1526 14.0498C24.4646 13.3794 23.6444 12.8597 22.7443 12.524C21.8442 12.1883 20.884 12.0439 19.925 12.1C18.9011 12.056 17.879 12.2203 16.9204 12.5828C15.9618 12.9453 15.0868 13.4985 14.3482 14.209C13.6097 14.9195 13.023 15.7725 12.6237 16.7163C12.2243 17.6602 12.0207 18.6752 12.025 19.7C12.0111 21.1277 12.4486 22.5232 13.275 23.6875C13.3351 23.7543 13.3779 23.8348 13.3997 23.922C13.4215 24.0091 13.4216 24.1003 13.4 24.1875C13.2625 24.7375 12.9625 25.9375 12.9125 26.175C12.8625 26.4125 12.65 26.5625 12.325 26.4125C10.1375 25.3875 8.77499 22.2 8.77499 19.625C8.77499 14.1125 12.7875 9.0375 20.3375 9.0375C26.4 9.0375 31.125 13.3625 31.125 19.15C31.125 25.175 27.375 30.025 22.0375 30.025C21.255 30.0522 20.4781 29.8835 19.7774 29.5343C19.0767 29.185 18.4743 28.6662 18.025 28.025L16.9375 32.1875C16.4162 33.8052 15.6849 35.3475 14.7625 36.775C16.4622 37.2774 18.2277 37.5217 20 37.5C24.6413 37.5 29.0925 35.6563 32.3744 32.3744C35.6562 29.0925 37.5 24.6413 37.5 20C37.5 15.3587 35.6562 10.9075 32.3744 7.62563C29.0925 4.34374 24.6413 2.5 20 2.5Z" fill="#FCFAF8"/>
</svg>
