<svg width="40" height="40" viewBox="0 0 40 40" fill="none" xmlns="http://www.w3.org/2000/svg">
<rect width="40" height="40" fill="white" style="mix-blend-mode:multiply"/>
<path d="M34.8872 22.3501C35.0133 21.5732 35.076 20.7872 35.0747 20.0001C35.0747 16.002 33.4865 12.1676 30.6594 9.34049C27.8323 6.51338 23.9979 4.92513 19.9997 4.92513C19.2126 4.92391 18.4267 4.98661 17.6497 5.11263C15.9073 4.06888 13.8662 3.63718 11.8504 3.88607C9.83457 4.13496 7.9597 5.05018 6.52349 6.48639C5.08729 7.92259 4.17207 9.79746 3.92318 11.8133C3.67429 13.8291 4.10599 15.8702 5.14974 17.6126C5.00911 18.4009 4.93386 19.1995 4.92474 20.0001C4.92474 23.9983 6.51299 27.8327 9.3401 30.6598C12.1672 33.4869 16.0016 35.0751 19.9997 35.0751C20.7869 35.0764 21.5728 35.0136 22.3497 34.8876C24.0921 35.9314 26.1333 36.3631 28.1491 36.1142C30.1649 35.8653 32.0398 34.9501 33.476 33.5139C34.9122 32.0777 35.8274 30.2028 36.0763 28.187C36.3252 26.1712 35.8935 24.13 34.8497 22.3876L34.8872 22.3501ZM27.1622 26.8501C26.4567 27.8256 25.4844 28.5765 24.3622 29.0126C22.9777 29.556 21.4992 29.8194 20.0122 29.7876C18.2814 29.8601 16.5596 29.5037 14.9997 28.7501C14.0903 28.2613 13.3105 27.5628 12.7247 26.7126C12.1882 25.9863 11.8832 25.115 11.8497 24.2126C11.8484 23.9785 11.8955 23.7466 11.988 23.5315C12.0805 23.3164 12.2164 23.1227 12.3872 22.9626C12.7658 22.6404 13.2532 22.475 13.7497 22.5001C14.1647 22.4923 14.5685 22.6343 14.8872 22.9001C15.2361 23.2265 15.5055 23.6284 15.6747 24.0751C15.8916 24.5971 16.1685 25.0921 16.4997 25.5501C16.8299 25.973 17.2592 26.3078 17.7497 26.5251C18.416 26.811 19.1379 26.9434 19.8622 26.9126C20.8939 26.9626 21.9157 26.6919 22.7872 26.1376C23.1217 25.9417 23.3999 25.6627 23.5948 25.3276C23.7897 24.9925 23.8948 24.6127 23.8997 24.2251C23.9105 23.9537 23.8638 23.6831 23.7625 23.431C23.6613 23.1789 23.5078 22.9512 23.3122 22.7626C22.8671 22.3526 22.3319 22.0529 21.7497 21.8876C21.0997 21.6751 20.2372 21.4626 19.1497 21.2251C17.9008 20.9344 16.6827 20.5241 15.5122 20.0001C14.5913 19.6227 13.7792 19.0211 13.1497 18.2501C12.5527 17.4554 12.2441 16.4811 12.2747 15.4876C12.2646 14.4776 12.59 13.4928 13.1997 12.6876C13.8962 11.8223 14.8237 11.1722 15.8747 10.8126C17.2037 10.3712 18.6001 10.1681 19.9997 10.2126C21.0949 10.1933 22.1865 10.3408 23.2372 10.6501C24.0618 10.895 24.8364 11.2844 25.5247 11.8001C26.0665 12.207 26.5177 12.7221 26.8497 13.3126C27.12 13.7897 27.2661 14.3269 27.2747 14.8751C27.2731 15.1088 27.2248 15.3398 27.1324 15.5545C27.0401 15.7692 26.9058 15.9632 26.7372 16.1251C26.5671 16.3094 26.3601 16.4559 26.1297 16.555C25.8992 16.654 25.6505 16.7035 25.3997 16.7001C24.9976 16.7314 24.599 16.606 24.2872 16.3501C23.9592 16.0341 23.6848 15.6668 23.4747 15.2626C23.1652 14.6255 22.7167 14.066 22.1622 13.6251C21.4347 13.1716 20.5783 12.9696 19.7247 13.0501C18.8486 13.0132 17.9804 13.2302 17.2247 13.6751C16.9502 13.8217 16.7184 14.0369 16.5519 14.2998C16.3854 14.5627 16.2899 14.8643 16.2747 15.1751C16.2648 15.5147 16.3756 15.8469 16.5872 16.1126C16.8365 16.4015 17.143 16.6356 17.4872 16.8001C17.8538 16.9898 18.2393 17.1406 18.6372 17.2501C19.0372 17.3626 19.6872 17.5251 20.5997 17.7376C21.7497 17.9876 22.7747 18.2626 23.7122 18.5626C24.5508 18.8181 25.35 19.1883 26.0872 19.6626C26.7303 20.0693 27.2593 20.6328 27.6247 21.3001C27.9962 22.0613 28.1683 22.9043 28.1247 23.7501C28.136 24.8587 27.7994 25.9429 27.1622 26.8501Z" fill="#FCFAF8"/>
</svg>
