<svg width="34" height="21" viewBox="0 0 34 21" fill="none" xmlns="http://www.w3.org/2000/svg">
<g id="Master Card">
<path id="Vector" fill-rule="evenodd" clip-rule="evenodd" d="M6.68871 10.2874L6.88374 9.5164C7.63307 9.29023 9.16251 9.18743 9.44992 9.99958C9.61416 10.4725 9.14198 12.4361 9.0496 13.0118L8.3208 13.022C8.15657 12.8164 8.29001 13.1968 8.1771 12.6931C7.4791 13.3202 5.99071 13.2174 6.10362 11.9529C6.21653 10.6987 7.3046 10.8631 8.48504 10.6781C8.46451 9.87622 7.45857 10.0921 6.67845 10.2772L6.68871 10.2874ZM12.1803 10.1641C11.5131 10.1641 11.4105 10.0201 10.8254 10.2772C10.8973 11.0071 11.277 10.7192 11.8005 11.0688C12.7962 11.7267 11.7287 13.7622 9.35754 12.8884L9.49098 12.1482C10.1582 12.2818 10.4969 12.4155 11.0102 12.1276C11.1333 11.0893 9.29595 11.7678 9.80919 10.1024C10.0863 9.19771 11.3078 9.32107 12.3138 9.4136L12.1701 10.1641H12.1803ZM1.95667 8.59116L3.52717 8.64256L3.69141 11.1099L4.54338 9.13603C4.8308 8.42667 4.63577 8.58088 6.44236 8.60144L5.63144 13.0118L4.74868 13.0015L5.23112 9.8351L3.9275 13.022L2.87023 12.9912C2.83944 12.3744 2.78811 10.2052 2.62388 9.79398L2.09011 13.0015L1.16629 12.9912L1.95667 8.59116ZM16.9329 17.9567L17.364 17.4426C16.5018 17.3295 16.3478 17.5763 15.9578 16.8772L17.9389 16.8566C18.062 16.651 18.2673 16.4557 18.37 16.2193C16.1117 16.0651 15.4753 16.6408 15.1161 15.6538H18.7395L19.1398 15.0267L14.6644 15.0062L14.4591 14.4819L19.2835 14.4613C19.5607 14.3071 19.5607 14.1323 19.6325 13.8136L15.0647 13.8034C14.2436 13.8136 14.1922 13.9987 14.0383 13.2482H19.7865L19.9713 12.6108L18.2879 12.5903L18.2057 13.022L17.2409 12.9809L17.8465 9.39304L18.76 9.5164C18.76 9.53696 18.7806 9.60893 18.7806 9.63977C18.7806 9.66033 18.7908 9.69117 18.7908 9.70145L18.8421 9.8865C19.0988 9.57809 19.263 9.35192 19.8584 9.37248L19.5504 10.2052C19.3759 10.4314 18.8627 10.1744 18.6471 10.7912L19.6531 10.8323C19.766 10.1846 19.8892 9.9893 20.0739 9.465L20.0842 9.15659L13.7919 9.16687L13.7714 9.39304C14.1101 9.39304 14.0998 9.33136 14.2949 9.49584L14.2025 10.1024C13.5661 10.2566 13.5866 9.87622 13.525 10.7089C13.6174 10.8631 13.5045 10.7809 13.6995 10.8323L14.0998 10.8426C14.7465 8.73509 16.6763 9.19771 17.1177 9.85566C17.3538 10.2052 17.5899 11.3566 17.0048 11.4491L15.0442 11.4697C15.1366 12.508 16.3273 12.2921 17.0971 12.0351C17.0664 12.4669 17.0971 12.8164 16.6968 12.9604C16.3786 13.0734 15.7114 13.0426 15.3624 12.9604C14.5002 12.765 14.1306 12.3332 14.0691 11.3977L13.6995 11.3874C13.3608 11.2332 13.6277 11.3874 13.4532 10.9659C13.3095 11.8295 12.9194 12.3847 13.9869 12.2613C13.9253 12.7753 13.9972 12.9501 13.4326 13.0118C11.7903 13.2071 12.324 12.1071 12.5909 10.637C13.0118 8.29303 12.6833 8.58088 13.874 8.60144L19.9918 8.61172L19.8686 7.97433L13.9561 7.95377L14.0691 7.43975L19.6633 7.40891C19.5196 6.53507 19.4888 6.75096 17.4564 6.75096H14.3565C14.572 6.00049 14.4591 6.2061 16.471 6.2061H19.1912L18.9037 5.55843L14.9621 5.54815L15.229 5.01356L18.5239 4.993C18.1031 4.12944 18.1236 4.37618 15.7935 4.33505C16.0912 3.59486 16.6147 3.77991 17.5283 3.77991C17.2716 3.36869 17.0869 3.39953 16.9329 3.05C16.5531 2.85467 16.2144 2.50513 15.8346 2.23784C12.9297 0.18175 8.98801 -0.0341399 5.82647 1.50793C2.98314 2.88551 0.191138 6.07245 0.221932 10.4828C0.262991 16.7847 5.78541 21.38 12.0366 20.3109C14.9723 19.8071 15.7114 18.6146 16.9226 17.9464L16.9329 17.9567Z" fill="#CAC4D0"/>
<path id="Vector_2" fill-rule="evenodd" clip-rule="evenodd" d="M23.6354 9.48662C26.8174 8.83895 26.2939 10.4119 26.0373 11.6866C25.9552 12.067 25.9552 12.8175 25.6575 13.0231C25.5857 13.0231 25.1648 13.0334 25.1238 13.0128C24.8363 12.8997 24.9698 13.239 24.9287 12.7147C24.0665 13.2081 22.7013 13.3212 22.8655 11.9437C22.999 10.8436 24.1075 10.6689 25.2367 10.7203C25.1956 9.90812 24.4565 10.0418 23.4301 10.2988L23.6456 9.48662H23.6354ZM26.7764 9.3941L27.6283 9.40438C27.6386 9.42494 27.6489 9.45578 27.6489 9.47634L27.7823 9.85672C27.9363 9.62027 28.2237 9.41466 28.6753 9.40438L28.5522 10.1343L28.1313 10.2988C27.2896 10.5764 27.3409 11.6352 27.1151 13.0231H26.1605L26.7764 9.3941ZM31.3031 8.61278H32.1756L31.4263 13.0334C30.4511 13.0437 30.6872 13.0951 30.3793 12.725C29.7429 13.6708 27.8336 12.7969 28.4187 10.8436C28.8498 9.38382 30.3074 8.99316 31.026 9.85672L31.3134 8.6025L31.3031 8.61278ZM16.9428 3.06134C17.0967 3.41087 17.2918 3.38003 17.5381 3.79125C16.6246 3.79125 16.1011 3.59592 15.8034 4.34639C18.1335 4.38752 18.1129 4.14078 18.5338 5.00434L15.2388 5.0249L14.9719 5.55949L18.9136 5.56977L19.201 6.21744H16.4809C14.4792 6.21744 14.5819 6.02211 14.3663 6.7623H17.4663C19.4987 6.7623 19.5295 6.54641 19.6732 7.42025L14.0789 7.45109L13.966 7.96512L19.8785 7.98568L20.0017 8.62306L13.8839 8.61278L13.8018 9.18849L20.094 9.17821L20.0838 9.48662C20.5559 9.03428 20.4738 8.79783 21.3566 8.54082C22.0854 8.33521 22.5473 8.48942 23.2658 8.64363L23.1119 9.58943C21.8801 9.21933 21.0795 9.31186 20.792 10.5866C20.4738 11.9539 21.5516 12.468 22.691 11.9231C22.5884 12.9203 22.4241 13.167 21.254 13.0128C20.443 12.91 20.1967 12.5194 19.8374 12.0362H18.3696L18.2874 12.6016L19.9709 12.6222L19.7861 13.2596H14.0378C14.1918 14.01 14.2431 13.825 15.0643 13.8147L19.6321 13.825C19.55 14.1334 19.5603 14.3184 19.2831 14.4726L14.4587 14.4932L14.664 15.0175L19.1394 15.0381L18.7391 15.6652H15.1156C15.4749 16.6418 16.1113 16.0764 18.3696 16.2306C18.2669 16.4671 18.0616 16.6624 17.9384 16.868L15.9574 16.8886C16.3371 17.5773 16.5014 17.3409 17.3636 17.454L16.9325 17.968C18.4004 19.0475 19.5397 19.9521 21.9109 20.3633C24.0665 20.7334 26.3145 20.3222 28.0492 19.469C35.563 15.7577 35.3577 5.06603 27.9876 1.52955C25.3393 0.265051 21.8288 0.151966 19.0881 1.59123C17.7639 2.28002 17.4457 2.77348 16.953 3.07162L16.9428 3.06134Z" fill="#CAC4D0"/>
<path id="Vector_3" fill-rule="evenodd" clip-rule="evenodd" d="M1.16602 13.0027L2.08987 13.013L2.62365 9.8054C2.78789 10.2166 2.83921 12.3859 2.87001 13.0027L3.9273 13.0335L5.23096 9.84652L4.7485 13.013L5.63129 13.0233L6.44223 8.61283C4.63559 8.59227 4.83062 8.43806 4.5432 9.14743L3.69121 11.1213L3.52697 8.65395L1.95642 8.60255L1.16602 13.0027ZM29.7643 12.1905C28.9944 11.3989 29.6514 10.083 30.3699 10.2577C31.0782 10.4325 30.9448 12.17 29.7643 12.1905ZM31.0166 9.8568C30.2981 8.99322 28.8507 9.38389 28.4093 10.8437C27.8242 12.7868 29.7335 13.6709 30.3699 12.7251C30.6779 13.0952 30.4418 13.0335 31.417 13.0335L32.1663 8.61283H31.2938L31.0064 9.86708L31.0166 9.8568ZM23.9646 12.2008C23.8209 11.512 24.4573 11.2447 25.0629 11.3681C25.0937 12.0672 24.601 12.4475 23.9646 12.2008ZM23.6361 9.49697L23.4205 10.3092C24.447 10.0624 25.1964 9.92876 25.2272 10.7307C24.098 10.6793 22.9894 10.854 22.856 11.9541C22.6815 13.3317 24.057 13.2186 24.9192 12.7251C24.9603 13.2494 24.8268 12.9102 25.1143 13.0233C25.1553 13.0438 25.5762 13.0335 25.648 13.0335C25.956 12.8382 25.956 12.0774 26.0278 11.697C26.2947 10.412 26.808 8.84929 23.6258 9.49697H23.6361ZM8.32072 11.3372C8.34125 11.6868 8.27966 11.9541 8.05383 12.1288C7.89986 12.2419 7.43793 12.3756 7.25316 12.2008C6.67832 11.6765 7.75615 11.3269 8.31046 11.3372H8.32072ZM6.68859 10.2886C7.46873 10.1035 8.4747 9.88764 8.49523 10.6895C7.31475 10.8746 6.22666 10.7101 6.11375 11.9643C5.99057 13.2289 7.47899 13.3317 8.18728 12.7046C8.30019 13.2083 8.16675 12.8279 8.33099 13.0335L9.0598 13.0233C9.15219 12.4373 9.62438 10.4839 9.46014 10.011C9.17272 9.18855 7.6535 9.29136 6.89389 9.52782L6.69885 10.2989L6.68859 10.2886ZM15.1983 10.8026C15.3317 10.2783 15.5575 10.0624 16.1632 10.1447C16.3787 10.4531 16.3787 10.3606 16.4198 10.8026H15.1983ZM14.1102 10.854L14.0691 11.4092C14.1307 12.3447 14.5105 12.7662 15.3625 12.9719C15.7115 13.0541 16.3787 13.0849 16.697 12.9719C17.0973 12.8382 17.0665 12.4784 17.0973 12.0466C16.3274 12.3036 15.1367 12.5195 15.0443 11.4812L17.0049 11.4606C17.59 11.3681 17.3539 10.2269 17.1178 9.86708C16.6764 9.20911 14.7466 8.74648 14.0999 10.854H14.1102ZM20.0844 9.48669C19.8996 10.011 19.7765 10.2063 19.6635 10.854V11.4195L19.8381 12.0466C20.1973 12.5298 20.4437 12.9205 21.2546 13.0233C22.4248 13.1775 22.5891 12.9307 22.6917 11.9335C21.542 12.4784 20.4745 11.9643 20.7927 10.597C21.0904 9.31192 21.8911 9.22967 23.1126 9.59978L23.2666 8.65395C22.548 8.51002 22.0861 8.35581 21.3573 8.55115C20.4745 8.79788 20.5566 9.04462 20.0844 9.49697V9.48669ZM12.3138 9.41473C11.3078 9.33248 10.0863 9.19883 9.80915 10.1035C9.2959 11.769 11.1231 11.0905 11.0102 12.1288C10.4866 12.4167 10.1582 12.283 9.49093 12.1494L9.35749 12.8896C11.7287 13.7635 12.786 11.7382 11.8006 11.0699C11.277 10.7204 10.8972 11.0185 10.8254 10.2783C11.4105 10.011 11.5029 10.1652 12.1804 10.1652L12.3241 9.41473H12.3138Z" fill="#CAC4D0"/>
<path id="Vector_4" fill-rule="evenodd" clip-rule="evenodd" d="M13.463 10.9776L13.5348 10.7308C13.5964 9.89813 13.5759 10.2785 14.2123 10.1243L14.3047 9.51775C14.1096 9.35327 14.1199 9.41495 13.7812 9.41495L13.8017 9.18878L13.8838 8.61307C12.6931 8.59251 13.0216 8.30466 12.6007 10.6486C12.3338 12.1187 11.8001 13.2187 13.4424 13.0234C13.9967 12.9617 13.9351 12.7869 13.9967 12.2729C12.9395 12.3963 13.3295 11.8411 13.463 10.9776ZM18.2874 12.6122L18.3695 12.0467L18.4721 11.4299L18.6569 10.8131C18.8827 10.1963 19.396 10.4533 19.5602 10.2271L19.8682 9.39439C19.2625 9.37383 19.0983 9.6 18.8519 9.90841L18.8006 9.72336C18.8006 9.71308 18.7904 9.68224 18.7904 9.66168C18.7904 9.64112 18.7698 9.55888 18.7698 9.53831L17.8563 9.41495L17.2506 13.0028L18.2155 13.044L18.2976 12.6122H18.2874ZM26.1604 13.0234H27.1151C27.3409 11.6355 27.2896 10.5766 28.1313 10.2991L28.5521 10.1346L28.6753 9.40467C28.2236 9.41495 27.9362 9.62056 27.7823 9.85701L27.6488 9.47663C27.6386 9.45607 27.6386 9.42523 27.6283 9.40467L26.7763 9.39439L26.1604 13.0234Z" fill="#CAC4D0"/>
<path id="Vector_5" fill-rule="evenodd" clip-rule="evenodd" d="M29.7627 12.1858C30.9534 12.1653 31.0868 10.4279 30.3683 10.2531C29.6395 10.0783 28.9928 11.3942 29.7627 12.1858Z" fill="#CAC4D0"/>
<path id="Vector_6" fill-rule="evenodd" clip-rule="evenodd" d="M8.32087 11.3354C7.76657 11.3251 6.68877 11.6747 7.2636 12.199C7.44836 12.3635 7.91028 12.2298 8.06425 12.127C8.29007 11.9625 8.3414 11.685 8.33113 11.3354H8.32087ZM18.37 12.0345L19.8379 12.0448L19.6634 11.4177H18.4727L18.37 12.0345Z" fill="#CAC4D0"/>
<path id="Vector_7" fill-rule="evenodd" clip-rule="evenodd" d="M23.9643 12.2019C24.611 12.4383 25.0934 12.0682 25.0626 11.3691C24.4467 11.2561 23.8206 11.5233 23.9643 12.2019ZM18.4727 11.4205H19.6634V10.8551L18.6574 10.8037L18.4727 11.4205Z" fill="#CAC4D0"/>
<path id="Vector_8" fill-rule="evenodd" clip-rule="evenodd" d="M15.1982 10.8012H16.4197C16.389 10.3694 16.3787 10.4516 16.1631 10.1432C15.5575 10.061 15.3317 10.2769 15.1982 10.8012Z" fill="#CAC4D0"/>
<path id="Vector_9" fill-rule="evenodd" clip-rule="evenodd" d="M13.4639 10.9806C13.6384 11.4021 13.3715 11.2479 13.7102 11.4021L14.0797 11.4124L14.1208 10.8573L13.7205 10.847C13.5152 10.8059 13.6281 10.8778 13.546 10.7236L13.4741 10.9704L13.4639 10.9806Z" fill="#CAC4D0"/>
</g>
</svg>
