<svg width="52" height="19" viewBox="0 0 52 19" fill="none" xmlns="http://www.w3.org/2000/svg">
<g id="American Express">
<path id="Vector" d="M5.00586 4.96491H6.80076L5.90331 2.677L5.00586 4.96491Z" fill="#CAC4D0"/>
<path id="Vector_2" d="M27.2795 3.00334C27.1164 2.92163 26.8716 2.92163 26.6269 2.92163H24.9951V4.22901H26.6269C26.8716 4.22901 27.1164 4.22901 27.2795 4.1473C27.4427 4.06559 27.5243 3.82045 27.5243 3.57532C27.6059 3.24847 27.4427 3.08505 27.2795 3.00334Z" fill="#CAC4D0"/>
<path id="Vector_3" d="M44.7387 0.552246V1.53278L44.2492 0.552246H40.4146V1.53278L39.9251 0.552246H34.7036C33.8061 0.552246 33.0719 0.715669 32.4192 1.04251V0.552246H28.7478V1.04251C28.3399 0.715669 27.8504 0.552246 27.1977 0.552246H14.0623L13.1649 2.59502L12.2674 0.552246H8.10651V1.53278L7.617 0.552246H4.10879L2.47707 4.39267L0.600586 8.64165H4.76148L5.251 7.33427H6.3932L6.88272 8.64165H11.6147V7.66111L12.0226 8.64165H14.3886L14.7966 7.66111V8.64165H26.1371V6.51716H26.3002C26.4634 6.51716 26.4634 6.51716 26.4634 6.76229V8.55993H32.3376V8.06967C32.8271 8.3148 33.5614 8.55993 34.5404 8.55993H36.988L37.4775 7.25256H38.6197L39.1092 8.55993H43.8412V7.33427L44.5755 8.55993H48.4101V0.552246H44.7387ZM17.1626 7.41598H15.7756V2.92187L13.8175 7.41598H12.5938L10.6357 2.92187V7.41598H7.86175L7.29065 6.19031H4.51672L4.0272 7.49769H2.47707L4.92465 1.6962H6.96431L9.24872 7.17085V1.6962H11.4515L13.2464 5.61833L14.8782 1.6962H17.1626V7.41598ZM22.7104 2.92187H19.5286V3.98411H22.6288V5.12807H19.5286V6.27202H22.7104V7.49769H18.1416V1.6962H22.7104V2.92187ZM28.8294 5.29149C28.9926 5.61833 29.0742 5.86347 29.0742 6.35373V7.49769H27.6872V6.76229C27.6872 6.43545 27.6872 5.94518 27.4424 5.61833C27.1977 5.3732 26.9529 5.3732 26.4634 5.3732H24.9948V7.49769H23.6079V1.6962H26.7082C27.4424 1.6962 27.9319 1.6962 28.3399 1.94133C28.7478 2.18647 28.9926 2.59502 28.9926 3.24871C28.9926 4.14753 28.4215 4.6378 28.0135 4.80122C28.4215 4.88293 28.6662 5.12807 28.8294 5.29149ZM31.277 7.41598H29.89V1.61449H31.277V7.41598ZM47.3494 7.41598H45.3914L42.7806 3.08529V7.41598H40.0067L39.5172 6.19031H36.6617L36.1721 7.49769H34.622C33.9693 7.49769 33.1535 7.33427 32.6639 6.844C32.1744 6.35373 31.9297 5.70005 31.9297 4.6378C31.9297 3.82069 32.0928 3.00358 32.6639 2.34989C33.0719 1.85962 33.8061 1.6962 34.7036 1.6962H36.009V2.92187H34.7036C34.2141 2.92187 33.9693 3.00358 33.643 3.24871C33.3982 3.49385 33.235 3.98411 33.235 4.55609C33.235 5.20978 33.3166 5.61834 33.643 5.94518C33.8877 6.19031 34.2141 6.27202 34.622 6.27202H35.1931L37.0696 1.77791H39.1092L41.3937 7.25256V1.77791H43.4333L45.7993 5.78176V1.77791H47.1863V7.41598H47.3494Z" fill="#CAC4D0"/>
<path id="Vector_4" d="M37.151 4.96491H39.0275L38.1301 2.677L37.151 4.96491ZM23.2814 16.7313V12.0738L21.1602 14.3617L23.2814 16.7313Z" fill="#CAC4D0"/>
<path id="Vector_5" d="M14.5527 12.6465V13.7087H17.5714V14.8527H14.5527V16.0784H17.8978L19.4479 14.3624L17.9793 12.6465H14.5527Z" fill="#CAC4D0"/>
<path id="Vector_6" d="M26.3823 12.6465H24.6689V14.1173H26.4638C26.9534 14.1173 27.2797 13.8722 27.2797 13.3819C27.1981 12.8916 26.8718 12.6465 26.3823 12.6465Z" fill="#CAC4D0"/>
<path id="Vector_7" d="M51.5923 14.0352V10.3582H48.1656C47.4314 10.3582 46.8603 10.5216 46.4523 10.8484V10.3582H42.6994C42.1283 10.3582 41.394 10.5216 41.0676 10.8484V10.3582H34.4592V10.8484C33.9697 10.4399 33.0722 10.3582 32.6643 10.3582H28.2586V10.8484C27.8507 10.4399 26.8717 10.3582 26.3821 10.3582H21.487L20.3448 11.5838L19.2842 10.3582H11.9414V18.3658H19.121L20.2632 17.1402L21.3238 18.3658H25.7295V16.4865H26.3006C26.8717 16.4865 27.6059 16.4865 28.177 16.2414V18.4476H31.8484V16.3231H32.0116C32.2564 16.3231 32.2563 16.3231 32.2563 16.5682V18.4476H43.3521C44.0863 18.4476 44.8206 18.2841 45.2285 17.9573V18.4476H48.7367C49.471 18.4476 50.2053 18.3658 50.6948 18.039C51.5107 17.5487 52.0002 16.6499 52.0002 15.5877C52.0002 15.0157 51.837 14.4437 51.5923 14.0352ZM26.3006 15.3425H24.6688V17.3036H22.0581L20.4264 15.4242L18.7131 17.3036H13.3284V11.5021H18.7946L20.4264 13.3815L22.1397 11.5021H26.4637C27.5244 11.5021 28.7481 11.829 28.7481 13.3815C28.6666 15.0157 27.5244 15.3425 26.3006 15.3425ZM34.4592 15.0157C34.6223 15.2608 34.7039 15.5877 34.7039 16.0779V17.2219H33.317V16.4865C33.317 16.1596 33.317 15.5877 33.0722 15.3425C32.909 15.0974 32.5827 15.0974 32.0932 15.0974H30.6246V17.2219H29.2377V11.4204H32.3379C32.9906 11.4204 33.5617 11.4204 33.9697 11.6655C34.3776 11.9107 34.7039 12.3192 34.7039 12.9729C34.7039 13.8717 34.1328 14.362 33.7249 14.5254C34.1328 14.6888 34.3776 14.8523 34.4592 15.0157ZM40.0886 12.6461H36.9068V13.7083H40.007V14.8523H36.9068V15.9962H40.0886V17.2219H35.5198V11.4204H40.0886V12.6461ZM43.5152 17.2219H40.9045V15.9962H43.5152C43.76 15.9962 43.9232 15.9962 44.0863 15.8328C44.1679 15.7511 44.2495 15.5877 44.2495 15.4242C44.2495 15.2608 44.1679 15.0974 44.0863 15.0157C44.0048 14.934 43.8416 14.8523 43.5968 14.8523C42.2914 14.7706 40.7413 14.8523 40.7413 13.0546C40.7413 12.2375 41.2308 11.3387 42.6994 11.3387H45.3917V12.7278H42.8625C42.6178 12.7278 42.4546 12.7278 42.2914 12.8095C42.1283 12.8912 42.1283 13.0546 42.1283 13.218C42.1283 13.4632 42.2914 13.5449 42.4546 13.6266C42.6178 13.7083 42.781 13.7083 42.9441 13.7083H43.6784C44.4127 13.7083 44.9022 13.8717 45.2285 14.1986C45.4733 14.4437 45.6365 14.8523 45.6365 15.4242C45.6365 16.6499 44.9022 17.2219 43.5152 17.2219ZM50.5316 16.6499C50.2053 16.9768 49.6342 17.2219 48.8183 17.2219H46.2076V15.9962H48.8183C49.0631 15.9962 49.2263 15.9962 49.3894 15.8328C49.471 15.7511 49.5526 15.5877 49.5526 15.4242C49.5526 15.2608 49.471 15.0974 49.3894 15.0157C49.3078 14.934 49.1447 14.8523 48.8999 14.8523C47.5945 14.7706 46.0444 14.8523 46.0444 13.0546C46.0444 12.2375 46.5339 11.3387 48.0025 11.3387H50.6948V12.7278H48.2472C48.0025 12.7278 47.8393 12.7278 47.6761 12.8095C47.513 12.8912 47.513 13.0546 47.513 13.218C47.513 13.4632 47.5945 13.5449 47.8393 13.6266C48.0025 13.7083 48.1656 13.7083 48.3288 13.7083H49.0631C49.7974 13.7083 50.2869 13.8717 50.6132 14.1986C50.6948 14.1986 50.6948 14.2803 50.6948 14.2803C50.9396 14.6071 51.0212 15.0157 51.0212 15.4242C51.0212 15.9145 50.858 16.3231 50.5316 16.6499Z" fill="#CAC4D0"/>
<path id="Vector_8" d="M32.9901 12.8092C32.827 12.7275 32.5822 12.7275 32.3375 12.7275H30.7057V14.0348H32.3375C32.5822 14.0348 32.827 14.0348 32.9901 13.9531C33.1533 13.8714 33.2349 13.6263 33.2349 13.3812C33.3165 13.0543 33.1533 12.8909 32.9901 12.8092ZM27.2791 3.00385C27.1159 2.92213 26.8712 2.92213 26.6264 2.92213H24.9947V4.22951H26.6264C26.8712 4.22951 27.1159 4.22951 27.2791 4.1478C27.4423 4.06609 27.5239 3.82096 27.5239 3.57582C27.6055 3.24898 27.4423 3.08556 27.2791 3.00385ZM37.151 4.96491H39.0275L38.1301 2.677L37.151 4.96491ZM23.2814 16.7313V12.0738L21.1602 14.3617L23.2814 16.7313ZM26.3817 12.6458H24.6684V14.1166H26.4633C26.9528 14.1166 27.2791 13.8714 27.2791 13.3812C27.1975 12.8909 26.8712 12.6458 26.3817 12.6458Z" fill="#CAC4D0"/>
<path id="Vector_9" d="M32.9905 12.8092C32.8273 12.7275 32.5825 12.7275 32.3378 12.7275H30.7061V14.0349H32.3378C32.5825 14.0349 32.8273 14.0349 32.9905 13.9532C33.1536 13.8715 33.2352 13.6264 33.2352 13.3812C33.3168 13.0544 33.1536 12.891 32.9905 12.8092Z" fill="#CAC4D0"/>
<g id="Group">
<path id="Vector_10" d="M25.8111 17.0585L24.6689 15.8328V17.2219H21.9765L20.3448 15.3425L18.5499 17.2219H13.1652V11.5021H18.6315L20.3448 13.3815L21.1606 12.4009L19.121 10.3582H11.9414V18.3658H19.121L20.3448 17.1402L21.4054 18.3658H25.8111V17.0585Z" fill="#CAC4D0"/>
</g>
<g id="Group_2">
<path id="Vector_11" d="M17.3257 8.55993L16.2651 7.41598H15.7756V6.92571L14.5518 5.70005L13.736 7.41598H12.5937L10.6357 2.92187V7.41598H7.86175L7.29065 6.19031H4.51672L3.94562 7.41598H2.47707L4.92465 1.6962H6.9643L9.24872 7.17085V1.6962H10.4725L9.3303 0.552246H8.10651V1.53278L7.69858 0.552246H4.10879L2.47707 4.39267L0.600586 8.55993H4.84306L5.33258 7.33427H6.47479L7.04589 8.55993H11.6147V7.5794L12.0226 8.55993H14.3886L14.7966 7.5794V8.55993H17.3257Z" fill="#CAC4D0"/>
<path id="Vector_12" d="M13.573 4.80176L12.2676 3.49438L13.2466 5.61887L13.573 4.80176Z" fill="#CAC4D0"/>
</g>
<g id="Group_3">
<path id="Vector_13" d="M50.6948 17.9568C51.4291 17.4666 51.9186 16.6494 52.0002 15.7506L50.858 14.6067C50.9396 14.8518 51.0212 15.0969 51.0212 15.4238C51.0212 15.914 50.858 16.3226 50.5317 16.6494C50.2053 16.9763 49.6342 17.2214 48.8183 17.2214H46.2076V15.9957H48.8183C49.0631 15.9957 49.2263 15.9957 49.3895 15.8323C49.471 15.7506 49.5526 15.5872 49.5526 15.4238C49.5526 15.2603 49.471 15.0969 49.3895 15.0152C49.3079 14.9335 49.1447 14.8518 48.8999 14.8518C47.5946 14.7701 46.0444 14.8518 46.0444 13.0542C46.0444 12.237 46.5339 11.5016 47.7577 11.3382L46.8603 10.4394C46.6971 10.5211 46.6155 10.6028 46.5339 10.6028V10.1125H42.781C42.2099 10.1125 41.4756 10.276 41.1493 10.6028V10.1125H34.4592V10.6028C33.9697 10.1943 33.0722 10.1125 32.6643 10.1125H28.2586V10.6028C27.8507 10.1943 26.8717 10.1125 26.3822 10.1125H21.487L20.3448 11.3382L19.2842 10.1125H18.3867L20.8343 12.5639L22.0581 11.2565H26.3822C27.4428 11.2565 28.6666 11.5833 28.6666 13.1359C28.6666 14.7701 27.5244 15.0969 26.3006 15.0969H24.6689V16.3226L25.8926 17.5483V16.3226H26.3006C26.8717 16.3226 27.606 16.3226 28.1771 16.0775V18.2837H31.8484V16.1592H32.0116C32.2564 16.1592 32.2564 16.1592 32.2564 16.4043V18.2837H43.3521C44.0864 18.2837 44.8206 18.1202 45.2286 17.7934V18.2837H48.7368C49.3895 18.3654 50.1237 18.2837 50.6948 17.9568ZM34.4592 15.0152C34.6224 15.2603 34.7039 15.5872 34.7039 16.0775V17.2214H33.317V16.486C33.317 16.1592 33.317 15.5872 33.0722 15.3421C32.9091 15.0969 32.5827 15.0969 32.0932 15.0969H30.6246V17.2214H29.2377V11.4199H32.3379C32.9906 11.4199 33.5617 11.4199 33.9697 11.6651C34.3776 11.9102 34.7039 12.3187 34.7039 12.9724C34.7039 13.8713 34.1328 14.3615 33.7249 14.525C34.1328 14.6884 34.3776 14.8518 34.4592 15.0152ZM40.0886 12.6456H36.9068V13.7078H40.007V14.8518H36.9068V15.9957H40.0886V17.2214H35.5198V11.4199H40.0886V12.6456ZM43.5152 17.2214H40.9045V15.9957H43.5152C43.76 15.9957 43.9232 15.9957 44.0864 15.8323C44.1679 15.7506 44.2495 15.5872 44.2495 15.4238C44.2495 15.2603 44.1679 15.0969 44.0864 15.0152C44.0048 14.9335 43.8416 14.8518 43.5968 14.8518C42.2915 14.7701 40.7413 14.8518 40.7413 13.0542C40.7413 12.237 41.2308 11.3382 42.6994 11.3382H45.3917V12.7273H42.8626C42.6178 12.7273 42.4546 12.7273 42.2915 12.809C42.1283 12.8907 42.1283 13.0541 42.1283 13.2176C42.1283 13.4627 42.2915 13.5444 42.4546 13.6261C42.6178 13.7078 42.781 13.7078 42.9441 13.7078H43.6784C44.4127 13.7078 44.9022 13.8713 45.2286 14.1981C45.4733 14.4432 45.6365 14.8518 45.6365 15.4238C45.6365 16.6494 44.9022 17.2214 43.5152 17.2214Z" fill="#CAC4D0"/>
<path id="Vector_14" d="M47.4316 13.218C47.4316 13.4632 47.5132 13.5449 47.758 13.6266C47.9212 13.7083 48.0843 13.7083 48.2475 13.7083H48.9818C49.4713 13.7083 49.7976 13.79 50.124 13.9534L48.9002 12.7278H48.1659C47.9212 12.7278 47.758 12.7278 47.5948 12.8095C47.5132 12.8912 47.4316 13.0546 47.4316 13.218Z" fill="#CAC4D0"/>
</g>
<g id="Group_4">
<path id="Vector_15" d="M44.5761 8.3154L44.7393 8.56053H44.8209L44.5761 8.3154ZM40.0889 3.82129L41.4758 7.17144V5.21038L40.0889 3.82129Z" fill="#CAC4D0"/>
<path id="Vector_16" d="M26.1372 6.51772H26.3003C26.4635 6.51772 26.4635 6.51772 26.4635 6.76286V8.5605H32.3377V8.07023C32.8272 8.31537 33.5615 8.5605 34.5405 8.5605H36.9881L37.4776 7.25312H38.6199L39.1094 8.5605H43.8414V7.74339L42.6992 6.59943V7.49826H39.9252L39.5173 6.19088H36.6618L36.1723 7.49826H34.6221C33.9694 7.49826 33.1536 7.33483 32.6641 6.84457C32.1745 6.3543 31.9298 5.70061 31.9298 4.63837C31.9298 3.82126 32.093 3.00414 32.6641 2.35045C33.072 1.86019 33.8063 1.69677 34.7037 1.69677H36.0091V2.92243H34.7037C34.2142 2.92243 33.9694 3.00414 33.6431 3.24928C33.3983 3.49441 33.2352 3.98468 33.2352 4.55666C33.2352 5.21034 33.3168 5.6189 33.6431 5.94574C33.8879 6.19088 34.2142 6.27259 34.6221 6.27259H35.1932L37.0697 1.77848H37.8856L36.7434 0.634521H34.6221C33.7247 0.634521 32.9904 0.797942 32.3377 1.12479V0.634521H28.7479V1.12479C28.34 0.797942 27.8505 0.634521 27.1978 0.634521H14.0624L13.165 2.6773L12.2675 0.634521H8.67773L9.81994 1.77848H11.4517L12.8386 4.80179L13.3281 5.29206L14.7967 1.69677H17.0811V7.49826H15.6941V3.00414L14.3072 6.27259L16.6732 8.64221H26.0556L26.1372 6.51772ZM29.8901 1.69677H31.2771V7.49826H29.8901V1.69677ZM22.7106 2.92243H19.5287V3.98468H22.629V5.12863H19.5287V6.27259H22.7106V7.49826H18.1417V1.69677H22.7106V2.92243ZM24.995 7.41654H23.608V1.61505H26.7083C27.4425 1.61505 27.9321 1.61506 28.34 1.86019C28.7479 2.10532 28.9927 2.51388 28.9927 3.16757C28.9927 4.06639 28.4216 4.55666 28.0137 4.72008C28.34 4.80179 28.5848 5.04692 28.6663 5.21034C28.8295 5.53719 28.9111 5.78232 28.9111 6.27259V7.41654H27.5241V6.68114C27.5241 6.3543 27.5241 5.86403 27.2794 5.53719C27.1978 5.37377 26.953 5.37377 26.4635 5.37377H24.995V7.41654Z" fill="#CAC4D0"/>
</g>
</g>
</svg>
