<svg width="49" height="21" viewBox="0 0 49 21" fill="none" xmlns="http://www.w3.org/2000/svg">
<g id="Group">
<g id="Mask group">
<mask id="mask0_219_1848" style="mask-type:luminance" maskUnits="userSpaceOnUse" x="0" y="0" width="49" height="21">
<g id="Group_2">
<path id="Vector" d="M0.901367 0.5H48.8174V20.5H0.901367V0.5Z" fill="#CAC4D0"/>
</g>
</mask>
<g mask="url(#mask0_219_1848)">
<path id="Vector_2" fill-rule="evenodd" clip-rule="evenodd" d="M5.90233 9.49649C4.86968 9.11215 4.30376 8.81322 4.30376 8.34347C4.30376 7.94482 4.62916 7.71709 5.2092 7.71709C6.27017 7.71709 7.35937 8.12994 8.10916 8.49998L8.53355 5.86659C7.9394 5.58186 6.72278 5.11211 5.03944 5.11211C3.85115 5.11211 2.86084 5.42524 2.15359 6.00891C1.41791 6.62097 1.03596 7.50357 1.03596 8.57119C1.03596 10.5071 2.21014 11.3328 4.11989 12.0303C5.35062 12.4715 5.7609 12.7848 5.7609 13.2687C5.7609 13.7385 5.36474 14.0089 4.64327 14.0089C3.75205 14.0089 2.28091 13.5676 1.31892 12.9983L0.894531 15.6602C1.71498 16.1299 3.24279 16.6139 4.82725 16.6139C6.0862 16.6139 7.13306 16.3149 7.84041 15.7456C8.63254 15.1192 9.04282 14.194 9.04282 12.9983C9.04282 11.0196 7.84041 10.194 5.90233 9.49649ZM15.9516 7.94482L16.376 5.32563H14.1355V2.14605L11.1232 2.64484L10.6882 5.32563L9.62869 5.49859L9.23209 7.94482H10.6838V13.0837C10.6838 14.4217 11.0233 15.347 11.7165 15.9164C12.2965 16.3861 13.1311 16.6139 14.3053 16.6139C15.2106 16.6139 15.7623 16.4574 16.1442 16.3576V13.5818C15.932 13.6388 15.4511 13.7385 15.1257 13.7385C14.4326 13.7385 14.1355 13.3826 14.1355 12.5712V7.94482H15.9516ZM22.6798 5.17264C21.6896 5.17264 20.8974 5.69577 20.5862 6.63528L20.374 5.32563H17.3043V16.4003H20.8125V9.21176C21.2511 8.6708 21.8735 8.47521 22.7223 8.47521C22.9063 8.47521 23.1042 8.47521 23.3448 8.51791V5.25805C23.1042 5.20115 22.892 5.17264 22.6798 5.17264ZM25.9619 4.22951C26.9804 4.22951 27.8008 3.38972 27.8008 2.36481C27.8008 1.32559 26.9804 0.5 25.9619 0.5C24.9291 0.5 24.1087 1.32559 24.1087 2.36481C24.1087 3.38972 24.9291 4.22951 25.9619 4.22951ZM24.1935 5.32563H27.716V16.4003H24.1935V5.32563ZM37.6979 6.32204C37.0755 5.51065 36.2126 5.11211 35.1092 5.11211C34.0906 5.11211 33.1994 5.53916 32.3647 6.43595L32.1809 5.32563H29.0969V20.5L32.6053 19.9164V16.3576C33.1427 16.5285 33.6945 16.6139 34.1896 16.6139C35.0667 16.6139 36.3399 16.3861 37.3301 15.3043C38.2779 14.2651 38.7589 12.6566 38.7589 10.5356C38.7589 8.6566 38.4052 7.23314 37.6979 6.32204ZM34.7838 13.1548C34.5008 13.6958 34.0623 13.9805 33.553 13.9805C33.1994 13.9805 32.8881 13.9093 32.6053 13.767V8.49998C33.1994 7.87371 33.7369 7.8025 33.935 7.8025C34.8262 7.8025 35.2647 8.77051 35.2647 10.6637C35.2647 11.7455 35.1092 12.5854 34.7838 13.1548ZM48.817 10.7633C48.817 8.99824 48.435 7.60318 47.6852 6.62097C46.9213 5.62456 45.7755 5.11211 44.3184 5.11211C41.3335 5.11211 39.4804 7.33275 39.4804 10.8914C39.4804 12.8844 39.9754 14.379 40.9515 15.3327C41.8286 16.1868 43.0877 16.6139 44.7145 16.6139C46.214 16.6139 47.6003 16.258 48.4774 15.6744L48.0955 13.2545C47.2325 13.7243 46.2282 13.9805 45.0964 13.9805C44.4174 13.9805 43.9506 13.8381 43.6111 13.5391C43.2432 13.226 43.031 12.7135 42.9604 11.9876H48.7745C48.7886 11.8167 48.817 11.0196 48.817 10.7633ZM42.932 9.82382C43.031 8.24375 43.4554 7.50357 44.2618 7.50357C45.054 7.50357 45.4643 8.25806 45.5208 9.82382H42.932Z" fill="#CAC4D0"/>
</g>
</g>
</g>
</svg>
