<svg width="53" height="17" viewBox="0 0 53 17" fill="none" xmlns="http://www.w3.org/2000/svg">
<g id="Visa">
<path id="Vector" fill-rule="evenodd" clip-rule="evenodd" d="M37.4826 11.4238C37.4931 8.77024 35.3028 7.62455 33.6022 6.73434C32.526 6.17139 31.6462 5.71097 31.6462 5.03655C31.6462 4.46171 32.2033 3.85308 33.3888 3.69592C34.7983 3.55665 36.2203 3.80329 37.4994 4.41002L38.2319 0.92896C36.9844 0.461508 35.6622 0.219823 34.3295 0.214844C30.2179 0.214844 27.3602 2.40792 27.3602 5.54087C27.3602 7.85623 29.4338 9.14423 31.0019 9.91002C32.5701 10.6759 33.1797 11.215 33.1618 11.9112C33.1618 12.9903 31.8733 13.4776 30.6709 13.4955C29.1879 13.5144 27.7249 13.1554 26.4195 12.4512L25.6701 15.9322C27.1468 16.5081 28.7202 16.7976 30.3051 16.7847C34.6774 16.7847 37.553 14.6263 37.5698 11.2846L37.4826 11.4238ZM26.1757 0.494329L22.6915 16.5937H18.5106L21.9947 0.494329H26.1757ZM43.7025 10.9364L45.897 4.89739L47.1698 10.9364H43.7025ZM52.2221 16.6463H48.3543L47.8488 14.2444H42.6052L41.7508 16.6463H37.3606L43.6153 1.7296C43.9032 1.01947 44.5896 0.553002 45.3579 0.546044H48.842L52.2221 16.6463ZM13.5445 16.541L20.3047 0.441612H15.7748L11.4372 11.389L9.69461 2.07771C9.54011 1.13085 8.72031 0.437634 7.76073 0.441612H0.670538L0.56543 0.911054C1.98746 1.18954 3.36954 1.64507 4.67701 2.26866C5.23405 2.53023 5.61138 3.06634 5.67024 3.67897L8.99779 16.541H13.5445Z" fill="#CAC4D0"/>
</g>
</svg>
