<svg width="75" height="19" viewBox="0 0 75 19" fill="none" xmlns="http://www.w3.org/2000/svg">
<g id="Paypal">
<path id="Vector" fill-rule="evenodd" clip-rule="evenodd" d="M29.1318 4.53784C30.832 4.53784 32.4009 5.46157 32.1862 7.76372C31.926 10.4997 30.4626 12.0136 28.1535 12.0201H26.1359C25.8458 12.0201 25.7053 12.2573 25.6299 12.7432L25.2396 15.2278C25.1811 15.603 24.9885 15.788 24.7049 15.788H22.8278C22.5286 15.788 22.4245 15.5965 22.4909 15.1678L24.0402 5.21012C24.117 4.72024 24.3004 4.53784 24.6347 4.53784H29.1279H29.1318ZM26.0748 9.86913H27.6033C28.5594 9.83265 29.1942 9.1695 29.258 7.97347C29.297 7.23475 28.7988 6.70579 28.0065 6.7097L26.5678 6.71622L26.0748 9.86913ZM37.2895 15.0258C37.4612 14.8695 37.6355 14.7887 37.6108 14.9815L37.5497 15.4428C37.5185 15.6838 37.6134 15.8115 37.8372 15.8115H39.5049C39.7859 15.8115 39.9225 15.6981 39.9914 15.263L41.0191 8.80339C41.0711 8.47898 40.9918 8.32003 40.7459 8.32003H38.9117C38.7465 8.32003 38.6658 8.41254 38.6229 8.66529L38.5553 9.06266C38.5201 9.26981 38.4252 9.3063 38.3367 9.09784C38.0258 8.36042 37.2323 8.0295 36.1252 8.05556C33.5534 8.10897 31.8194 10.0646 31.6334 12.5713C31.4903 14.5099 32.877 16.0329 34.706 16.0329C36.0329 16.0329 36.6261 15.6421 37.2947 15.0297L37.2895 15.0258ZM35.8924 14.0318C34.7853 14.0318 34.0139 13.1471 34.1739 12.0631C34.3339 10.9792 35.3694 10.0945 36.4765 10.0945C37.5835 10.0945 38.3549 10.9792 38.1949 12.0631C38.0349 13.1471 37.0007 14.0318 35.8924 14.0318ZM44.283 8.29919H42.5918C42.2432 8.29919 42.1014 8.55976 42.212 8.88026L44.3116 15.0376L42.2523 17.9677C42.0793 18.2126 42.2133 18.4354 42.4566 18.4354H44.3571C44.4679 18.4482 44.58 18.4289 44.6801 18.3797C44.7802 18.3305 44.8641 18.2535 44.9217 18.1579L51.3792 8.88157C51.5782 8.59624 51.4846 8.29658 51.158 8.29658H49.3589C49.0506 8.29658 48.9271 8.41905 48.7501 8.67572L46.0573 12.5843L44.854 8.6666C44.7838 8.42948 44.6082 8.29919 44.2843 8.29919H44.283Z" fill="#CAC4D0"/>
<path id="Vector_2" fill-rule="evenodd" clip-rule="evenodd" d="M58.0973 4.53728C59.7975 4.53728 61.3664 5.461 61.1517 7.76315C60.8916 10.4992 59.4281 12.0131 57.119 12.0196H55.1027C54.8126 12.0196 54.6721 12.2567 54.5967 12.7427L54.2064 15.2272C54.1479 15.6024 53.9553 15.7874 53.6717 15.7874H51.7946C51.4954 15.7874 51.3913 15.5959 51.4577 15.1673L53.0096 5.20694C53.0864 4.71707 53.2698 4.53467 53.6041 4.53467H58.0973V4.53728ZM55.0403 9.86856H56.5688C57.5249 9.83208 58.1597 9.16893 58.2235 7.97291C58.2625 7.23419 57.7643 6.70523 56.972 6.70914L55.5333 6.71565L55.0403 9.86856ZM66.255 15.0253C66.4267 14.8689 66.601 14.7882 66.5763 14.981L66.5152 15.4422C66.484 15.6832 66.5789 15.8109 66.8027 15.8109H68.4704C68.7514 15.8109 68.888 15.6975 68.9569 15.2624L69.9846 8.80283C70.0366 8.47842 69.9573 8.31947 69.7114 8.31947H67.8798C67.7146 8.31947 67.6339 8.41197 67.591 8.66473L67.5234 9.0621C67.4882 9.26925 67.3933 9.30573 67.3048 9.09728C66.9939 8.35986 66.2004 8.02893 65.0934 8.05499C62.5215 8.10841 60.7875 10.064 60.6015 12.5707C60.4584 14.5093 61.8451 16.0324 63.6741 16.0324C65.001 16.0324 65.5942 15.6415 66.2628 15.0292L66.255 15.0253ZM64.8592 14.0312C63.7522 14.0312 62.9807 13.1466 63.1407 12.0626C63.3008 10.9786 64.3362 10.094 65.4433 10.094C66.5503 10.094 67.3217 10.9786 67.1617 12.0626C67.0017 13.1466 65.9662 14.0312 64.8592 14.0312ZM72.5512 15.8213H70.6259C70.5924 15.8228 70.559 15.8169 70.5281 15.804C70.4972 15.791 70.4695 15.7714 70.447 15.7465C70.4245 15.7216 70.4077 15.6921 70.398 15.66C70.3882 15.6279 70.3857 15.594 70.3905 15.5607L72.0816 4.83042C72.0977 4.75719 72.1382 4.69158 72.1963 4.64427C72.2544 4.59696 72.3267 4.57073 72.4016 4.56985H74.3269C74.3604 4.56835 74.3938 4.57427 74.4247 4.5872C74.4557 4.60013 74.4834 4.61974 74.5059 4.64463C74.5284 4.66952 74.5451 4.69908 74.5548 4.7312C74.5646 4.76331 74.5672 4.7972 74.5624 4.83042L72.8712 15.5607C72.8556 15.6345 72.8154 15.7007 72.7573 15.7485C72.6991 15.7963 72.6264 15.8229 72.5512 15.8239V15.8213Z" fill="#CAC4D0"/>
<path id="Vector_3" fill-rule="evenodd" clip-rule="evenodd" d="M4.10054 0.552246H9.14529C10.5658 0.552246 12.2517 0.597846 13.3783 1.59453C14.1315 2.26029 14.527 3.31951 14.4359 4.46082C14.1263 8.31857 11.8225 10.48 8.73161 10.48H6.24436C5.82028 10.48 5.5406 10.7614 5.42092 11.5223L4.72626 15.952C4.68073 16.2386 4.55714 16.408 4.336 16.4289H1.22303C0.878305 16.4289 0.756023 16.1683 0.845782 15.5924L3.08327 1.39389C3.17303 0.823239 3.48653 0.552246 4.10054 0.552246Z" fill="#CAC4D0"/>
<path id="Vector_4" fill-rule="evenodd" clip-rule="evenodd" d="M7.25201 4.76514H12.2916C14.9974 4.76514 16.0159 6.13704 15.8585 8.15256C15.5984 11.4801 13.5898 13.321 10.9257 13.321H9.58056C9.21502 13.321 8.96915 13.5633 8.87029 14.22L8.29921 18.0373C8.26148 18.2849 8.1314 18.4282 7.93627 18.4477H4.76996C4.47206 18.4477 4.36669 18.2197 4.44475 17.726L6.37523 5.48822C6.45068 4.99835 6.71866 4.76514 7.25201 4.76514Z" fill="#CAC4D0"/>
<path id="Vector_5" fill-rule="evenodd" clip-rule="evenodd" d="M5.49316 11.0729L6.37385 5.48758C6.4506 4.9977 6.71858 4.76318 7.25193 4.76318H12.2915C13.1253 4.76318 13.8005 4.89347 14.3286 5.1345C13.8226 8.56883 11.6046 10.4762 8.7011 10.4762H6.21775C5.88473 10.4775 5.64016 10.6443 5.49316 11.0729Z" fill="#CAC4D0"/>
</g>
</svg>
