<svg width="40" height="40" viewBox="0 0 40 40" fill="none" xmlns="http://www.w3.org/2000/svg">
<g id="Icons">
<rect width="40" height="40" fill="white" style="mix-blend-mode:multiply"/>
<g id="Vector">
<path d="M12.5 37.5C13.8807 37.5 15 36.3808 15 35C15 33.6193 13.8807 32.5 12.5 32.5C11.1193 32.5 10 33.6193 10 35C10 36.3808 11.1193 37.5 12.5 37.5Z" fill="#2A254B"/>
<path d="M30 37.5C31.3807 37.5 32.5 36.3808 32.5 35C32.5 33.6193 31.3807 32.5 30 32.5C28.6193 32.5 27.5 33.6193 27.5 35C27.5 36.3808 28.6193 37.5 30 37.5Z" fill="#2A254B"/>
<path d="M35 8.75005H7.275L6.25 3.50005C6.19156 3.21346 6.03447 2.95643 5.80607 2.77371C5.57767 2.59099 5.29243 2.49415 5 2.50005H0V5.00005H3.975L8.75 29.0001C8.80844 29.2866 8.96553 29.5437 9.19393 29.7264C9.42233 29.9091 9.70757 30.0059 10 30H32.5V27.5H11.025L10 22.5001H32.5C32.789 22.5071 33.0714 22.4138 33.2993 22.2361C33.5272 22.0583 33.6865 21.807 33.75 21.525L36.25 10.2751C36.2919 10.0896 36.2909 9.897 36.2471 9.71197C36.2034 9.52693 36.118 9.35432 35.9975 9.20726C35.8769 9.06021 35.7244 8.94259 35.5516 8.86336C35.3787 8.78413 35.1901 8.74538 35 8.75005ZM31.5 20H9.525L7.775 11.2501H33.4375L31.5 20Z" fill="#2A254B"/>
</g>
</g>
</svg>
