<svg width="24" height="24" viewBox="0 0 24 24" fill="none" xmlns="http://www.w3.org/2000/svg">
<g id="Icons">
<rect width="24" height="24" fill="#FCFAF8" style="mix-blend-mode:multiply"/>
<path id="Vector" d="M20.55 17.6L14.5714 12.2M9.42857 12.2L3.45003 17.6M3 7.7L10.3484 12.8439C10.9435 13.2605 11.241 13.4687 11.5647 13.5494C11.8505 13.6206 12.1495 13.6206 12.4353 13.5494C12.759 13.4687 13.0565 13.2605 13.6516 12.8439L21 7.7M7.32 19.4H16.68C18.1922 19.4 18.9482 19.4 19.5258 19.1057C20.0338 18.8469 20.4469 18.4338 20.7057 17.9258C21 17.3482 21 16.5922 21 15.08V9.32C21 7.80786 21 7.05178 20.7057 6.47423C20.4469 5.96619 20.0338 5.55314 19.5258 5.29428C18.9482 5 18.1922 5 16.68 5H7.32C5.80786 5 5.05178 5 4.47423 5.29428C3.96619 5.55314 3.55314 5.96619 3.29428 6.47423C3 7.05178 3 7.80786 3 9.32V15.08C3 16.5922 3 17.3482 3.29428 17.9258C3.55314 18.4338 3.96619 18.8469 4.47423 19.1057C5.05178 19.4 5.80786 19.4 7.32 19.4Z" stroke="#2A254B" stroke-width="1.5" stroke-linecap="round" stroke-linejoin="round"/>
</g>
</svg>
