<svg width="24" height="24" viewBox="0 0 24 24" fill="none" xmlns="http://www.w3.org/2000/svg">
<path id="Vector" d="M23.6342 10.5643L13.4183 0.509337C12.729 -0.168945 11.271 -0.168945 10.5817 0.509337L0.365812 10.5643C0.129891 10.7964 0 11.0902 0 11.3915C0 11.6928 0.129891 11.9866 0.365766 12.2187C0.698719 12.5464 1.20239 12.7269 1.78406 12.7269H3.09516V23.25C3.09516 23.6642 3.43097 24 3.84516 24H9.13013C9.54431 24 9.88013 23.6642 9.88013 23.25V14.8468C9.88013 13.6778 10.8311 12.7269 12 12.7269C13.1689 12.7269 14.1199 13.6778 14.1199 14.8468V23.25C14.1199 23.6642 14.4557 24 14.8699 24H20.1548C20.569 24 20.9048 23.6642 20.9048 23.25V12.7269H22.2159C22.7976 12.7269 23.3013 12.5464 23.6341 12.2188C23.8701 11.9866 24 11.6928 24 11.3915C24 11.0902 23.8701 10.7964 23.6342 10.5643ZM20.1548 11.2269C19.7407 11.2269 19.4048 11.5627 19.4048 11.9769V22.5H15.6199V14.8468C15.6199 12.8508 13.996 11.2269 12 11.2269C10.004 11.2269 8.38013 12.8508 8.38013 14.8468V22.5H4.59516V11.9769C4.59516 11.5627 4.25934 11.2269 3.84516 11.2269H1.83089L11.6314 1.58076C11.7623 1.47257 12.2377 1.47252 12.3661 1.57846L22.1691 11.2269H20.1548Z" fill="black"/>
</svg>
