<svg width="124" height="50" viewBox="0 0 124 50" fill="none" xmlns="http://www.w3.org/2000/svg">
<g id="Logo">
<path id="Vector" d="M35.1181 11.4617C35.2011 11.5812 35.2195 11.6485 35.2283 11.7948C35.2822 12.6908 35.2367 13.6169 35.2371 14.5155L35.2378 20.0132C35.2372 26.4641 35.1549 32.9254 35.2368 39.375L30.7024 39.3836L30.6878 31.2547C30.6873 29.7215 30.6455 28.1763 30.6953 26.6452C30.8882 26.9976 30.8363 37.9891 30.8407 39.1423C32.2384 39.0829 33.6385 39.1818 35.039 39.1009L35.0428 19.1708L35.0297 14.3773C35.0272 13.4686 34.9067 12.3405 35.1181 11.4617Z" fill="white"/>
<path id="Vector_2" d="M23.201 11.587C23.7744 11.5015 24.3813 11.5396 24.9269 11.7421C24.971 11.7584 25.0148 11.7758 25.0581 11.7944C25.1014 11.8129 25.1442 11.8325 25.1866 11.8532C25.2289 11.8739 25.2706 11.8956 25.3119 11.9185C25.3531 11.9412 25.3938 11.9651 25.4339 11.9899C25.4739 12.0147 25.5133 12.0406 25.552 12.0674C25.5908 12.0942 25.6288 12.122 25.6662 12.1508C25.7036 12.1795 25.7402 12.2092 25.776 12.2398C25.8119 12.2704 25.847 12.3019 25.8813 12.3342C25.9156 12.3666 25.9491 12.3998 25.9817 12.4339C26.0144 12.4679 26.0461 12.5028 26.0771 12.5384C26.1079 12.5741 26.1379 12.6106 26.167 12.6477C26.196 12.6849 26.2242 12.7228 26.2514 12.7614C26.2785 12.7999 26.3047 12.8392 26.3299 12.8791C26.3551 12.919 26.3793 12.9596 26.4025 13.0007C26.4257 13.0418 26.4478 13.0835 26.469 13.1257C26.49 13.168 26.51 13.2107 26.529 13.254C26.8293 13.9505 26.8615 14.763 26.575 15.4694C26.1927 16.4116 25.4504 16.8758 24.5581 17.2491C23.9634 17.2943 23.4344 17.3181 22.8629 17.1034C22.8183 17.0864 22.7742 17.0684 22.7304 17.0493C22.6867 17.0301 22.6435 17.01 22.6008 16.9887C22.558 16.9673 22.5159 16.945 22.4743 16.9216C22.4327 16.8982 22.3916 16.8738 22.3512 16.8483C22.3108 16.8229 22.2711 16.7965 22.232 16.7691C22.1929 16.7416 22.1545 16.7132 22.1167 16.6839C22.0791 16.6545 22.0422 16.6242 22.006 16.593C21.9698 16.5619 21.9344 16.5298 21.8998 16.4969C21.8652 16.4639 21.8315 16.4301 21.7985 16.3955C21.7656 16.3608 21.7336 16.3254 21.7024 16.2892C21.6712 16.2529 21.6409 16.2158 21.6117 16.1781C21.5823 16.1404 21.5539 16.1019 21.5265 16.0628C21.4991 16.0236 21.4726 15.9838 21.4471 15.9432C21.4217 15.9028 21.3973 15.8617 21.3739 15.8199C21.3504 15.7782 21.328 15.736 21.3068 15.6931C21.2854 15.6503 21.2652 15.607 21.246 15.5631C21.2276 15.5205 21.2102 15.4775 21.1939 15.4341C21.1775 15.3906 21.1622 15.3468 21.148 15.3027C21.1338 15.2585 21.1206 15.2139 21.1085 15.1691C21.0964 15.1243 21.0854 15.0792 21.0755 15.0338C21.0656 14.9885 21.0567 14.9429 21.049 14.8971C21.0414 14.8513 21.0348 14.8054 21.0293 14.7594C21.0237 14.7132 21.0193 14.667 21.016 14.6207C21.0127 14.5744 21.0106 14.528 21.0095 14.4815C21.0085 14.4351 21.0086 14.3887 21.0097 14.3423C21.0109 14.2958 21.0133 14.2495 21.0167 14.2032C21.0201 14.1569 21.0247 14.1107 21.0303 14.0647C21.036 14.0185 21.0427 13.9726 21.0505 13.9268C21.0584 13.8811 21.0674 13.8356 21.0775 13.7902C21.0875 13.7449 21.0986 13.6998 21.1109 13.655C21.1231 13.6103 21.1364 13.5658 21.1507 13.5217C21.1651 13.4776 21.1805 13.4338 21.197 13.3904C21.5674 12.4336 22.3104 11.9772 23.201 11.587Z" fill="white"/>
<path id="Vector_3" d="M41.2926 11.6024C41.861 11.508 42.4405 11.5305 42.9865 11.7234C43.0316 11.7393 43.0762 11.7563 43.1204 11.7745C43.1646 11.7926 43.2084 11.8119 43.2517 11.8323C43.295 11.8527 43.3377 11.8741 43.3799 11.8966C43.4221 11.9191 43.4637 11.9426 43.5048 11.9672C43.5458 11.9918 43.5862 12.0174 43.6259 12.044C43.6656 12.0707 43.7047 12.0983 43.7431 12.1268C43.7814 12.1554 43.819 12.185 43.856 12.2155C43.8928 12.246 43.9289 12.2774 43.9642 12.3097C43.9995 12.342 44.034 12.3752 44.0677 12.4093C44.1014 12.4433 44.1341 12.4781 44.166 12.5138C44.1979 12.5495 44.229 12.586 44.2591 12.6233C44.2892 12.6605 44.3183 12.6985 44.3465 12.7372C44.3748 12.7759 44.402 12.8154 44.4282 12.8555C44.4544 12.8956 44.4796 12.9363 44.5038 12.9776C44.528 13.019 44.5511 13.061 44.5733 13.1035C44.5953 13.146 44.6163 13.189 44.6363 13.2327C44.6564 13.2756 44.6754 13.3191 44.6932 13.3631C44.7111 13.407 44.7279 13.4514 44.7436 13.4962C44.7593 13.541 44.7738 13.5862 44.7871 13.6317C44.8005 13.6772 44.8127 13.7231 44.8238 13.7693C44.8348 13.8154 44.8447 13.8618 44.8534 13.9085C44.8621 13.9552 44.8696 14.002 44.876 14.049C44.8823 14.0961 44.8874 14.1433 44.8914 14.1906C44.8954 14.2379 44.8981 14.2853 44.8996 14.3328C44.9012 14.3802 44.9016 14.4277 44.9007 14.4752C44.8999 14.5226 44.8979 14.57 44.8947 14.6174C44.8914 14.6647 44.887 14.712 44.8814 14.7591C44.8757 14.8063 44.8689 14.8532 44.861 14.9C44.8529 14.9468 44.8437 14.9934 44.8334 15.0397C44.8231 15.086 44.8116 15.132 44.7989 15.1778C44.7862 15.2235 44.7724 15.2689 44.7574 15.314C44.7425 15.359 44.7264 15.4037 44.7091 15.4479C44.3331 16.3982 43.582 16.8633 42.6924 17.2485C42.1336 17.2834 41.6206 17.3156 41.0798 17.1342C41.0344 17.1191 40.9894 17.1029 40.9448 17.0855C40.9002 17.0681 40.856 17.0496 40.8124 17.0301C40.7687 17.0104 40.7255 16.9898 40.6829 16.9681C40.6403 16.9463 40.5982 16.9235 40.5566 16.8996C40.5152 16.8757 40.4743 16.8508 40.434 16.8249C40.3938 16.799 40.3542 16.772 40.3153 16.7441C40.2764 16.7162 40.2382 16.6873 40.2007 16.6574C40.1633 16.6276 40.1266 16.5968 40.0906 16.5651C40.0547 16.5334 40.0196 16.5008 39.9853 16.4673C39.9509 16.4339 39.9175 16.3996 39.8849 16.3645C39.8523 16.3294 39.8206 16.2934 39.7898 16.2567C39.759 16.2199 39.7292 16.1824 39.7003 16.1442C39.6713 16.1059 39.6434 16.067 39.6164 16.0274C39.5894 15.9877 39.5634 15.9474 39.5384 15.9065C39.5134 15.8655 39.4895 15.8239 39.4667 15.7818C39.4438 15.7396 39.4219 15.6969 39.4012 15.6537C39.3798 15.6093 39.3595 15.5644 39.3405 15.519C39.3214 15.4736 39.3035 15.4277 39.2868 15.3814C39.27 15.3351 39.2545 15.2884 39.2402 15.2412C39.2259 15.1941 39.2128 15.1466 39.2009 15.0987C39.189 15.0509 39.1784 15.0028 39.169 14.9545C39.1596 14.9061 39.1514 14.8575 39.1445 14.8087C39.1376 14.7599 39.132 14.711 39.1276 14.6619C39.1233 14.6128 39.1201 14.5636 39.1183 14.5143C39.1164 14.4651 39.1158 14.4158 39.1165 14.3665C39.1172 14.3173 39.1191 14.2681 39.1224 14.2188C39.1256 14.1697 39.1301 14.1206 39.1358 14.0717C39.1415 14.0227 39.1485 13.974 39.1567 13.9254C39.165 13.8768 39.1745 13.8285 39.1852 13.7804C39.1959 13.7323 39.2079 13.6845 39.2211 13.637C39.2342 13.5895 39.2487 13.5424 39.2643 13.4957C39.28 13.449 39.2967 13.4027 39.3147 13.3568C39.6852 12.4265 40.4109 11.9627 41.2926 11.6024Z" fill="white"/>
<path id="Vector_4" d="M39.7541 20.1122C41.2585 20.0715 42.7845 20.0891 44.2886 20.1383L44.2798 33.0148C44.2813 35.1183 44.3806 37.2725 44.259 39.3707L39.7735 39.3792C39.6925 37.1446 39.7591 34.883 39.7598 32.6455L39.7541 20.1122Z" fill="white"/>
<path id="Vector_5" d="M21.6255 20.1048C23.1364 20.1038 24.6505 20.0833 26.1607 20.1303L26.1665 39.3724L21.6191 39.3828L21.6255 20.1048Z" fill="white"/>
<path id="Vector_6" d="M30.6812 11.4498C32.1569 11.4157 33.6419 11.4561 35.1186 11.4616C34.9072 12.3404 35.0277 13.4686 35.0302 14.3772L35.0433 19.1707L35.0394 39.1009C33.639 39.1818 32.2388 39.0828 30.8412 39.1422C30.8368 37.9891 30.8887 26.9976 30.6958 26.6452C30.6423 25.0199 30.6916 23.3759 30.6924 21.7488L30.6812 11.4498Z" fill="white"/>
<path id="Vector_7" d="M77.7956 19.8155C80.2072 19.8036 82.5216 20.3451 84.4021 21.9316C86.3213 23.5506 87.3147 26.0078 87.5305 28.4729C87.7808 31.34 87.2513 34.3238 85.3536 36.5676C83.6278 38.6079 81.2393 39.4341 78.6521 39.6611C76.275 39.7081 73.8864 39.1771 72.0196 37.6319C70.0067 35.966 68.9689 33.5734 68.7188 31.0032C68.4452 28.1897 69.0359 25.1757 70.8661 22.9607C72.6921 20.7509 75.0475 20.0612 77.7956 19.8155ZM77.9344 23.2924C76.6535 23.4234 75.5166 23.7894 74.6646 24.8358C73.3077 26.5024 73.1107 29.0923 73.3597 31.1434C73.5427 32.6499 74.0458 34.2798 75.2786 35.2551C76.2267 36.0053 77.2404 36.1772 78.4104 36.1761C79.7626 36.0045 80.8118 35.6941 81.685 34.561C83.036 32.8077 83.1166 30.0001 82.8094 27.907C82.5978 26.4602 82.0813 24.9678 80.8516 24.0786C79.9956 23.459 78.9715 23.2545 77.9344 23.2924Z" fill="white"/>
<path id="Vector_8" d="M98.8413 19.8244C101.184 19.6552 103.637 20.3221 105.474 21.8083C107.471 23.4234 108.46 25.8017 108.728 28.3163C109.029 31.13 108.487 34.2049 106.665 36.4375C104.932 38.5619 102.565 39.3953 99.9174 39.6526C97.5418 39.7143 95.177 39.2045 93.289 37.6933C91.2817 36.0862 90.1992 33.6933 89.935 31.1634C89.6354 28.2848 90.2013 25.1902 92.0786 22.9156C93.7991 20.8309 96.2445 20.0564 98.8413 19.8244ZM98.4665 23.3571C97.138 23.6992 96.1876 24.1679 95.468 25.395C94.3092 27.3717 94.2502 30.3864 94.829 32.5512C95.1663 33.8104 95.8203 34.9455 96.9855 35.6041C98.0058 36.181 99.0787 36.2235 100.215 36.1016C101.436 35.8483 102.337 35.3529 103.045 34.29C104.317 32.3785 104.37 29.4957 103.912 27.3213C103.631 25.9989 103.066 24.7174 101.886 23.9673C100.876 23.3263 99.6296 23.2088 98.4665 23.3571Z" fill="white"/>
<path id="Vector_9" d="M0.541338 11.4474L5.06647 11.4805L5.04338 18.3202C5.0408 19.7113 4.96015 21.1491 5.11856 22.5308C6.36822 21.2212 7.89389 20.2238 9.70372 19.9369C11.5052 19.6512 13.4408 19.9914 14.9222 21.0946C16.7706 22.4711 17.661 24.7599 17.9786 26.9809C18.4859 30.5286 17.9022 34.1293 15.7236 37.0209C15.5599 37.1989 15.3912 37.372 15.2175 37.5402C13.7616 38.9609 11.9002 39.7128 9.86342 39.6648C7.70981 39.6142 6.32816 38.6415 4.88529 37.1292C4.73569 37.8137 4.72291 38.556 4.16306 39.0619C3.39646 39.7547 1.5035 39.418 0.542734 39.3672C0.404838 30.0681 0.561421 20.7488 0.541338 11.4474ZM8.71375 23.3661C7.10205 23.7918 6.14816 24.4895 5.06486 25.7448C5.04238 28.624 5.03869 31.5031 5.0538 34.3821C6.08598 35.4118 7.20204 36.1774 8.72255 36.1892C9.09672 36.1922 9.47464 36.1705 9.84129 36.0949C11.0675 35.7468 11.939 35.0595 12.5585 33.9464C13.7178 31.8638 13.7875 28.6207 13.1288 26.3722C12.8247 25.3339 12.2512 24.3603 11.2835 23.8192C10.4901 23.3755 9.59869 23.3417 8.71375 23.3661Z" fill="white"/>
<path id="Vector_10" d="M48.7444 11.4509C50.2254 11.3529 51.8246 11.3875 53.307 11.4675C53.288 15.138 53.2099 18.8377 53.3388 22.5053C54.6372 21.1647 56.1681 20.1748 58.0394 19.9098C59.8636 19.6515 61.7528 20.0066 63.2291 21.1504C65.075 22.5809 65.9498 24.9689 66.2301 27.2231C66.6576 30.6618 66.0932 34.2589 63.9275 37.0336C63.7284 37.2502 63.5275 37.4652 63.3128 37.6665C63.2235 37.7514 63.1321 37.8339 63.0386 37.9141C62.9452 37.9943 62.8497 38.0721 62.7523 38.1475C62.6549 38.2229 62.5557 38.2957 62.4546 38.366C62.3535 38.4363 62.2507 38.504 62.1461 38.5691C62.0417 38.6341 61.9356 38.6965 61.8279 38.7562C61.7202 38.8159 61.6111 38.8728 61.5006 38.9269C61.39 38.981 61.2782 39.0323 61.1651 39.0806C61.0519 39.1291 60.9377 39.1746 60.8223 39.2172C60.7069 39.2598 60.5904 39.2995 60.473 39.3361C60.3556 39.3728 60.2373 39.4064 60.1182 39.437C59.999 39.4677 59.8792 39.4953 59.7586 39.5198C59.6381 39.5443 59.517 39.5658 59.3954 39.5842C59.2738 39.6026 59.1518 39.6178 59.0294 39.63C58.907 39.6421 58.7844 39.6511 58.6616 39.657C58.5387 39.663 58.4158 39.6658 58.2929 39.6654C58.1699 39.6651 58.047 39.6616 57.9242 39.655C55.8801 39.5613 54.4224 38.6027 53.0774 37.1189C52.9743 37.7984 52.921 38.5485 52.3868 39.0477C51.6253 39.7594 49.7413 39.4242 48.7616 39.3664C48.6383 30.067 48.7613 20.7526 48.7444 11.4509ZM56.9358 23.3715C55.4068 23.7643 54.2888 24.4884 53.3019 25.7281C53.2498 28.6177 53.3452 31.51 53.2914 34.3992C54.2638 35.4264 55.3508 36.1618 56.8227 36.187C57.2206 36.1938 57.627 36.1816 58.0187 36.1086C59.2774 35.7282 60.1796 35.0963 60.8062 33.9099C61.935 31.7727 62.0121 28.4893 61.2958 26.2156C60.9828 25.2223 60.3874 24.2657 59.4396 23.7788C58.6667 23.3817 57.7875 23.3288 56.9358 23.3715Z" fill="white"/>
</g>
</svg>
