<svg width="66" height="24" viewBox="0 0 66 24" fill="none" xmlns="http://www.w3.org/2000/svg">
<g id="Frame">
<g id="SVGRepo_iconCarrier">
<g id="Group">
<path id="Vector" fill-rule="evenodd" clip-rule="evenodd" d="M40.9431 17.4796C37.1221 20.2421 31.5642 21.7139 26.7705 21.7139C20.0547 21.7139 14.0337 19.291 9.4484 15.2605C9.10103 14.9435 9.40208 14.5133 9.84208 14.7624C14.7747 17.5701 20.8652 19.2457 27.1642 19.2457C31.4021 19.2457 36.08 18.3853 40.3873 16.5965C41.0358 16.3474 41.5684 17.0267 40.9431 17.4796Z" fill="#FF9900"/>
<path id="Vector_2" fill-rule="evenodd" clip-rule="evenodd" d="M42.541 15.6909C42.0547 15.0796 39.2989 15.3966 38.0716 15.5551C37.701 15.6004 37.6316 15.2834 37.9789 15.0569C40.1789 13.5398 43.7684 13.9927 44.1852 14.4909C44.6021 14.989 44.0695 18.5214 42.0084 20.197C41.6842 20.446 41.3831 20.3102 41.5221 19.9705C41.9852 18.8384 43.0274 16.325 42.541 15.6909Z" fill="#FF9900"/>
<path id="Vector_3" fill-rule="evenodd" clip-rule="evenodd" d="M38.1411 4.4146V2.94279C38.1411 2.71635 38.3032 2.58049 38.5116 2.58049H45.2274C45.4358 2.58049 45.6211 2.739 45.6211 2.94279V4.18817C45.6211 4.39196 45.4358 4.66368 45.1116 5.11654L41.6379 9.9622C42.9347 9.93956 44.301 10.1207 45.4589 10.7547C45.7137 10.8906 45.7832 11.117 45.8063 11.3208V12.8832C45.8063 13.1096 45.5747 13.3587 45.32 13.2228C43.2589 12.1586 40.5032 12.0454 38.2337 13.2455C38.0021 13.3587 37.7474 13.1323 37.7474 12.9058V11.4114C37.7474 11.1849 37.7474 10.7774 38.0021 10.4151L42.0316 4.77689H38.5347C38.3263 4.77689 38.1411 4.61839 38.1411 4.4146ZM13.6632 13.5398H11.6253C11.44 13.5172 11.2779 13.3813 11.2547 13.2002V2.96543C11.2547 2.76164 11.44 2.60314 11.6484 2.60314H13.5474C13.7558 2.60314 13.8947 2.76164 13.9179 2.94279V4.27874H13.9642C14.4505 2.98807 15.4 2.3767 16.6505 2.3767C17.9242 2.3767 18.7347 2.98807 19.2905 4.27874C19.7768 2.98807 20.9116 2.3767 22.1158 2.3767C22.9726 2.3767 23.899 2.71635 24.4779 3.50887C25.1263 4.36931 24.9874 5.6147 24.9874 6.72422V13.2002C24.9874 13.404 24.8021 13.5625 24.5937 13.5625H22.5789C22.3705 13.5398 22.2084 13.3813 22.2084 13.2002V7.7658C22.2084 7.33558 22.2547 6.2487 22.1621 5.84112C22 5.16182 21.56 4.95804 20.9579 4.95804C20.4716 4.95804 19.9389 5.27505 19.7305 5.79584C19.5221 6.31664 19.5453 7.17708 19.5453 7.7658V13.2002C19.5453 13.404 19.36 13.5625 19.1516 13.5625H17.1137C16.9053 13.5398 16.7432 13.3813 16.7432 13.2002V7.7658C16.7432 6.63364 16.9284 4.93539 15.4926 4.93539C14.0337 4.93539 14.08 6.56571 14.08 7.7658V13.2002C14.0568 13.3813 13.8947 13.5398 13.6632 13.5398ZM51.4105 2.3767C54.4442 2.3767 56.0884 4.91275 56.0884 8.15074C56.0884 11.2755 54.2821 13.7663 51.4105 13.7663C48.4463 13.7663 46.8253 11.2302 46.8253 8.06017C46.8021 4.86747 48.4463 2.3767 51.4105 2.3767ZM51.4105 4.48253C49.9053 4.48253 49.8126 6.49778 49.8126 7.74316C49.8126 8.98854 49.7895 11.6604 51.3874 11.6604C52.9621 11.6604 53.0547 9.50934 53.0547 8.19603C53.0547 7.33558 53.0084 6.29399 52.7537 5.47884C52.5221 4.75425 52.0589 4.48253 51.4105 4.48253ZM60.0021 13.5398H57.9642C57.7558 13.5172 57.5937 13.3587 57.5937 13.1775V2.92014C57.6168 2.739 57.7789 2.58049 57.9874 2.58049H59.8863C60.0716 2.58049 60.2105 2.71636 60.2568 2.87486V4.43724H60.3032C60.8821 3.03336 61.6695 2.3767 63.0821 2.3767C63.9853 2.3767 64.8884 2.69371 65.4674 3.5768C66 4.39195 66 5.77319 66 6.7695V13.2228C65.9768 13.404 65.8147 13.5398 65.6063 13.5398H63.5684C63.3832 13.5172 63.2211 13.3813 63.1979 13.2228V7.65259C63.1979 6.52042 63.3368 4.89011 61.9242 4.89011C61.4379 4.89011 60.9747 5.20712 60.7432 5.70527C60.4653 6.33928 60.4189 6.95064 60.4189 7.65259V13.1775C60.3958 13.3813 60.2105 13.5398 60.0021 13.5398ZM32.7916 8.64889C32.7916 9.41877 32.8147 10.0754 32.4211 10.7774C32.0968 11.3434 31.5874 11.6831 31.0084 11.6831C30.2211 11.6831 29.7579 11.0944 29.7579 10.2339C29.7579 8.53568 31.3095 8.21867 32.7916 8.21867V8.64889ZM34.8526 13.5172C34.7137 13.6304 34.5284 13.6531 34.3663 13.5625C33.6947 13.019 33.5558 12.7473 33.1853 12.2265C32.0737 13.3361 31.2632 13.6757 29.8274 13.6757C28.1137 13.6757 26.7705 12.6341 26.7705 10.5736C26.7705 8.94326 27.6737 7.85637 28.9474 7.31294C30.0589 6.83743 31.6105 6.74686 32.7916 6.611V6.36192C32.7916 5.88641 32.8379 5.32033 32.5368 4.91275C32.2821 4.55046 31.8189 4.39195 31.4021 4.39195C30.6147 4.39195 29.92 4.77689 29.7579 5.59205C29.7116 5.7732 29.5958 5.95434 29.4105 5.95434L27.4421 5.75055C27.28 5.70526 27.0947 5.59205 27.1411 5.34297C27.6042 2.98807 29.7579 2.28613 31.7032 2.28613C32.6989 2.28613 33.9958 2.53521 34.7832 3.28244C35.7789 4.18817 35.6863 5.41091 35.6863 6.72422V9.82634C35.6863 10.7547 36.08 11.1623 36.4505 11.6831C36.5895 11.8642 36.6126 12.0907 36.4505 12.2039C36.0105 12.5435 35.2695 13.1775 34.8526 13.5172ZM6.04421 8.64889C6.04421 9.41877 6.06737 10.0754 5.67368 10.7774C5.34947 11.3434 4.84 11.6831 4.26105 11.6831C3.47368 11.6831 3.01053 11.0944 3.01053 10.2339C3.01053 8.53568 4.56211 8.21867 6.04421 8.21867V8.64889ZM8.0821 13.5172C7.94316 13.6304 7.7579 13.6531 7.59579 13.5625C6.92421 13.019 6.78526 12.7473 6.41474 12.2265C5.30316 13.3361 4.49263 13.6757 3.05684 13.6757C1.34316 13.6757 0 12.6341 0 10.5736C0 8.94326 0.903156 7.85637 2.17684 7.31294C3.28842 6.83743 4.84 6.74686 6.02105 6.611V6.36192C6.02105 5.88641 6.06737 5.32033 5.76631 4.91275C5.51158 4.55046 5.04842 4.39195 4.63158 4.39195C3.84421 4.39195 3.14947 4.77689 2.98737 5.59205C2.94105 5.7732 2.82526 5.95434 2.64 5.95434L0.671578 5.75055C0.509472 5.70526 0.324212 5.59205 0.370528 5.34297C0.833686 2.98807 2.98737 2.28613 4.93263 2.28613C5.92842 2.28613 7.22526 2.53521 8.01263 3.28244C9.00842 4.18817 8.91579 5.41091 8.91579 6.72422V9.82634C8.91579 10.7547 9.30947 11.1623 9.68 11.6831C9.81895 11.8642 9.84211 12.0907 9.68 12.2039C9.24 12.5435 8.49895 13.1775 8.0821 13.5172Z" fill="black"/>
</g>
</g>
</g>
</svg>
