<svg width="20" height="20" viewBox="0 0 20 20" fill="none" xmlns="http://www.w3.org/2000/svg">
<g id="Icon">
<g id="Group">
<path id="Vector" d="M18.4339 6.00929C18.3447 5.83442 18.2209 5.67953 18.0699 5.55404C17.919 5.42855 17.7441 5.33509 17.5559 5.27933C17.3677 5.22354 17.1701 5.20663 16.9751 5.22963C16.7801 5.25263 16.5919 5.31506 16.4218 5.41313L16.0114 5.64987C15.9564 5.43872 15.8523 5.24356 15.7075 5.08028C15.5117 4.86072 15.2531 4.7066 14.9668 4.63876L15.0903 4.51544C15.6589 3.97097 15.7016 3.07646 15.1874 2.48013C15.056 2.33358 14.8961 2.21537 14.7175 2.13274C14.5388 2.0501 14.3452 2.00478 14.1484 1.99954C13.9517 1.9943 13.7559 2.02925 13.5731 2.10225C13.3903 2.17526 13.2243 2.28478 13.0853 2.42413L12.3961 3.11497C12.2415 2.46298 11.6596 2.00225 10.9894 2.0016H10.9874C10.7978 2.00121 10.6101 2.03841 10.435 2.11105C10.2599 2.18368 10.101 2.29032 9.96737 2.42478L7.60314 4.78871L7.59892 4.79289L7.33491 5.05672C7.28648 4.63023 7.08716 4.2351 6.77295 3.94266C6.34621 3.55783 5.69267 3.57618 5.28802 3.98406L2.79973 6.47554C0.524318 8.68465 0.389233 12.2929 2.49303 14.666C2.91853 15.1318 3.41628 15.526 3.96716 15.8335C4.08562 15.96 4.20958 16.0812 4.33868 16.1968C6.22491 17.8749 8.97483 18.154 11.1597 16.8892L16.8911 13.5809C17.5799 13.2013 17.8522 12.3499 17.5115 11.6412C17.3784 11.3774 17.1674 11.1608 16.9071 11.0208L17.64 10.598C18.3311 10.2207 18.6065 9.3686 18.2668 8.65825C18.1346 8.39581 17.9249 8.18035 17.6661 8.04107L17.8154 7.95492C18.5059 7.57379 18.7774 6.71917 18.4339 6.00929ZM3.00231 14.2018C1.14572 12.1007 1.27038 8.91097 3.28519 6.96112L5.77494 4.47167C5.84212 4.40003 5.93448 4.35725 6.03257 4.35236C6.13067 4.34747 6.22683 4.38084 6.3008 4.44544C6.41097 4.54843 6.49931 4.67252 6.56057 4.81032C6.62184 4.94813 6.65479 5.09684 6.65746 5.24763C6.66012 5.39841 6.63246 5.5482 6.5761 5.68808C6.51975 5.82797 6.43586 5.9551 6.32941 6.06193H6.32768L3.98783 8.40178C3.95583 8.4338 3.93045 8.47181 3.91314 8.51363C3.89584 8.55546 3.88693 8.60029 3.88695 8.64556C3.88697 8.69082 3.8959 8.73564 3.91324 8.77746C3.93058 8.81927 3.95598 8.85727 3.988 8.88926C4.12261 9.02387 4.34088 9.0237 4.47549 8.88909L6.81112 6.55312L10.4501 2.91411C10.5201 2.84374 10.6033 2.78794 10.6949 2.74995C10.7866 2.71196 10.8848 2.69253 10.984 2.69279C11.1343 2.69248 11.2812 2.7368 11.4062 2.82014C11.5312 2.90348 11.6286 3.02207 11.6861 3.16087C11.7436 3.29967 11.7585 3.45242 11.729 3.59973C11.6995 3.74703 11.6269 3.88226 11.5205 3.98824L7.62752 7.88354C7.59494 7.9154 7.56899 7.95342 7.5512 7.99538C7.5334 8.03734 7.52411 8.08242 7.52386 8.12799C7.5236 8.17357 7.53239 8.21875 7.54971 8.2609C7.56704 8.30306 7.59255 8.34136 7.62478 8.37359C7.65701 8.40582 7.69531 8.43134 7.73747 8.44866C7.77963 8.46598 7.8248 8.47477 7.87038 8.47452C7.91596 8.47426 7.96103 8.46497 8.00299 8.44718C8.04495 8.42938 8.08297 8.40344 8.11483 8.37085L12.0126 4.4734L13.5743 2.91174C13.6472 2.8385 13.7343 2.78094 13.8302 2.7426C13.9262 2.70425 14.029 2.68594 14.1322 2.68878C14.2355 2.69154 14.3371 2.71539 14.4308 2.75887C14.5245 2.80236 14.6083 2.86455 14.6771 2.94164C14.9404 3.26711 14.9089 3.74043 14.6047 4.02813L13.6108 5.02209V5.02411L9.18715 9.44351C9.14315 9.48601 9.11126 9.53946 9.09475 9.59836C9.07823 9.65727 9.07769 9.7195 9.09318 9.77869C9.10867 9.83787 9.13963 9.89186 9.18288 9.93512C9.22613 9.97838 9.28012 10.0094 9.33929 10.0249C9.45991 10.0563 9.58797 10.0205 9.67442 9.93082L14.0947 5.51069C14.1656 5.43538 14.2521 5.37649 14.3482 5.33816C14.4443 5.29982 14.5476 5.28296 14.6508 5.28877C14.754 5.29113 14.8556 5.31471 14.9493 5.35805C15.043 5.40139 15.1267 5.46355 15.1953 5.54067C15.269 5.62639 15.322 5.72789 15.3503 5.83735C15.3786 5.9468 15.3814 6.06129 15.3584 6.17198C15.3521 6.20695 15.3434 6.24146 15.3325 6.27528C15.3195 6.3158 15.3039 6.35542 15.2857 6.39391C15.2738 6.41751 15.2606 6.44049 15.2463 6.46274C15.2368 6.4789 15.2278 6.49522 15.217 6.51069C15.189 6.5508 15.1577 6.5885 15.1234 6.62341L13.6548 8.09758L13.6526 8.09961L10.7477 11.0037C10.7037 11.0461 10.6718 11.0995 10.6552 11.1584C10.6387 11.2173 10.6381 11.2795 10.6536 11.3387C10.6691 11.3978 10.7001 11.4518 10.7434 11.495C10.7866 11.5383 10.8406 11.5692 10.8998 11.5847C10.9589 11.6002 11.0212 11.5997 11.0801 11.5832C11.139 11.5667 11.1924 11.5349 11.235 11.4909L14.1336 8.59178C14.1336 8.59178 14.1378 8.58959 14.1395 8.58791C14.3816 8.32523 14.7799 8.28035 15.0744 8.48259C15.0911 8.49284 15.1089 8.50042 15.1244 8.51218C15.1399 8.52381 15.1572 8.54246 15.174 8.55728C15.1971 8.57615 15.2189 8.59613 15.2398 8.61715C15.2413 8.61952 15.243 8.62172 15.2447 8.62375C15.3052 8.69786 15.3519 8.78227 15.3825 8.87294C15.4018 8.9369 15.4123 9.00302 15.4139 9.06966V9.108C15.4117 9.24363 15.3775 9.37683 15.314 9.49671C15.3064 9.51142 15.2983 9.52588 15.2898 9.54009C15.2576 9.59438 15.2193 9.64481 15.1757 9.69038C15.172 9.69438 15.1693 9.69929 15.1651 9.70347L10.4854 14.383C10.3843 14.4842 10.279 14.5811 10.1697 14.6733C8.70299 15.9144 6.66914 16.2405 4.88793 15.52C4.76168 15.4686 4.63745 15.4124 4.51555 15.3514C3.94447 15.065 3.43137 14.6752 3.00231 14.2018ZM16.5451 12.9841L10.8144 16.2921C10.1113 16.6995 9.32201 16.935 8.51069 16.9796C7.69937 17.0243 6.88898 16.8767 6.14547 16.5489C6.57443 16.6006 7.00789 16.603 7.43739 16.5562C7.47172 16.5528 7.50385 16.5456 7.53767 16.5417C7.70997 16.5207 7.87809 16.4937 8.04652 16.4579C8.10626 16.4456 8.16446 16.4286 8.22369 16.4141C8.3654 16.3798 8.50553 16.3411 8.64453 16.2957C8.71065 16.2743 8.77544 16.2503 8.84087 16.2267C8.97147 16.1789 9.10001 16.1268 9.22725 16.0695C9.29327 16.0402 9.35873 16.0095 9.42359 15.9777C9.54842 15.9159 9.67041 15.8485 9.79124 15.7774C9.85396 15.7427 9.91557 15.706 9.97599 15.6674C10.1003 15.5881 10.2203 15.5017 10.3393 15.4122C10.3913 15.3734 10.4446 15.3376 10.4957 15.2971C10.646 15.176 10.7902 15.0476 10.9279 14.9124C10.9433 14.8976 10.9602 14.8855 10.9753 14.8704L12.108 13.7374H12.1119C12.1724 13.7373 12.2318 13.7214 12.2842 13.6912L15.8404 11.6377L15.8443 11.6347C15.9338 11.5841 16.0327 11.5522 16.1349 11.5409C16.2371 11.5296 16.3406 11.5392 16.439 11.569C16.5374 11.5989 16.6287 11.6484 16.7075 11.7146C16.7862 11.7807 16.8507 11.8622 16.897 11.954C17.0669 12.3365 16.9133 12.785 16.5451 12.9841ZM17.2964 9.99983L15.4942 11.0405C15.4942 11.0405 15.491 11.0439 15.489 11.0449L13.8613 11.9858L15.6567 10.1903C15.718 10.1279 15.7737 10.0604 15.8233 9.98837C15.8394 9.96563 15.8536 9.94293 15.8684 9.91954C15.8978 9.87265 15.9247 9.82424 15.949 9.7745C15.9645 9.74306 15.9811 9.71239 15.9941 9.68025C16.0372 9.57127 16.0683 9.45781 16.0868 9.3419C16.0924 9.30744 16.0979 9.27543 16.1009 9.24196C16.1055 9.19617 16.1075 9.15073 16.1075 9.10412C16.1075 9.06966 16.1051 9.03533 16.1028 9.00083C16.1028 8.98114 16.1028 8.9618 16.1003 8.94259L16.5951 8.65657C16.6844 8.60505 16.7832 8.57223 16.8855 8.56011C16.9879 8.54798 17.0916 8.55681 17.1904 8.58605C17.2892 8.61521 17.3811 8.66417 17.4604 8.72996C17.5396 8.79574 17.6047 8.87696 17.6516 8.96869C17.8207 9.35232 17.6656 9.80147 17.2964 9.99983ZM17.4687 7.35673L16.2505 8.06075L15.8512 8.29125C15.821 8.24444 15.7881 8.19944 15.7526 8.15647C15.7074 8.10748 15.659 8.06145 15.6079 8.01867C15.6024 8.01414 15.5978 8.00841 15.5923 8.00385C15.5633 7.98016 15.5317 7.96112 15.5011 7.93975C15.4703 7.91839 15.4445 7.89668 15.4142 7.87833C15.2896 7.80441 15.1545 7.74983 15.0134 7.71645L15.6145 7.11577C15.6723 7.05543 15.7253 6.99068 15.773 6.9221C15.7915 6.89634 15.8073 6.87041 15.8253 6.84387C15.8504 6.80399 15.8724 6.76289 15.8943 6.72119C15.9334 6.64493 15.966 6.5655 15.9917 6.48376C15.9952 6.47351 15.9996 6.46373 16.0028 6.45348L16.7678 6.01162C16.8569 5.96022 16.9556 5.92751 17.0578 5.91547C17.16 5.90344 17.2636 5.91233 17.3622 5.94161C17.4609 5.97089 17.5525 6.01995 17.6316 6.08579C17.7107 6.15164 17.7756 6.23289 17.8222 6.3246C17.991 6.70788 17.8378 7.15664 17.4698 7.35669L17.4687 7.35673Z" fill="#1F1F1F"/>
</g>
</g>
</svg>
