<svg width="16" height="16" viewBox="0 0 16 16" fill="none" xmlns="http://www.w3.org/2000/svg">
<g id="Star">
<path id="Primary fill" fill-rule="evenodd" clip-rule="evenodd" d="M4.66679 8.33307L2.25088 6.33314C1.79489 5.96849 1.99489 5.23518 2.57353 5.15252L6.00007 4.99986L7.46335 1.33132C7.56535 1.128 7.77268 1 8 1C8.22732 1 8.43465 1.12866 8.53665 1.33132L9.99993 4.99986L13.4265 5.15252C14.0051 5.23518 14.2051 5.96849 13.7491 6.33314L11.3332 8.33307L11.9925 12.2376C12.0685 12.7702 11.5152 13.1689 11.0346 12.9282L8 10.9996L4.96545 12.9276C4.48413 13.1682 3.93148 12.7696 4.00748 12.2369L4.66679 8.33307Z" fill="#1F1F1F"/>
</g>
</svg>
