<svg width="542" height="542" viewBox="0 0 542 542" fill="none" xmlns="http://www.w3.org/2000/svg">
<rect width="542" height="542" rx="271" fill="#11133E"/>
<path d="M170.64 110L222.387 110.378L222.123 188.422C222.094 204.296 221.172 220.701 222.983 236.467C237.274 221.524 254.72 210.144 275.417 206.869C296.017 203.609 318.152 207.492 335.093 220.08C356.23 235.786 366.412 261.902 370.044 287.245C375.845 327.726 369.171 368.813 344.257 401.807C342.385 403.838 340.456 405.813 338.47 407.732C321.82 423.943 300.534 432.523 277.243 431.975C252.615 431.397 236.815 420.298 220.316 403.043C218.605 410.853 218.459 419.323 212.056 425.096C203.29 433.001 181.643 429.158 170.656 428.579C169.079 322.472 170.87 216.134 170.64 110ZM264.096 245.999C245.665 250.856 234.757 258.817 222.369 273.14C222.112 305.994 222.07 338.846 222.242 371.697C234.046 383.445 246.809 392.181 264.196 392.317C268.475 392.351 272.797 392.103 276.99 391.24C291.013 387.268 300.978 379.426 308.063 366.725C321.319 342.961 322.116 305.956 314.584 280.299C311.106 268.453 304.548 257.343 293.482 251.169C284.409 246.106 274.216 245.72 264.096 245.999Z" fill="#FCFAF8"/>
</svg>
