<svg width="24" height="24" viewBox="0 0 24 24" fill="none" xmlns="http://www.w3.org/2000/svg">
<rect width="24" height="24" fill="white" style="mix-blend-mode:multiply"/>
<path d="M12.0008 1.5C9.56647 1.51658 7.21355 2.37849 5.34454 3.93828C3.47553 5.49807 2.20657 7.65882 1.75473 10.0509C1.3029 12.443 1.69626 14.9177 2.86755 17.0518C4.03883 19.1858 5.91524 20.8466 8.17578 21.75C8.02385 20.7558 8.02385 19.7442 8.17578 18.75L9.41328 13.5C9.21744 13.0245 9.12047 12.5142 9.12828 12C9.12828 10.545 9.97578 9.45 11.0258 9.45C11.216 9.44714 11.4046 9.48543 11.5786 9.56224C11.7527 9.63906 11.908 9.75258 12.0341 9.89504C12.1602 10.0375 12.254 10.2055 12.3091 10.3876C12.3642 10.5697 12.3792 10.7615 12.3533 10.95C12.3533 11.85 11.7833 13.2 11.4833 14.445C11.4187 14.6772 11.411 14.9215 11.4609 15.1573C11.5108 15.3931 11.6167 15.6133 11.7697 15.7995C11.9228 15.9857 12.1184 16.1322 12.3401 16.2267C12.5618 16.3212 12.803 16.361 13.0433 16.3425C14.9033 16.3425 16.3433 14.37 16.3433 11.535C16.362 10.9589 16.2604 10.3853 16.045 9.85061C15.8296 9.31598 15.5052 8.8321 15.0924 8.42986C14.6795 8.02762 14.1874 7.71584 13.6473 7.51442C13.1073 7.31299 12.5312 7.22634 11.9558 7.26C11.3415 7.23361 10.7282 7.33216 10.153 7.54966C9.57788 7.76717 9.05286 8.09912 8.60973 8.52542C8.1666 8.95172 7.81459 9.46351 7.57498 10.0298C7.33538 10.5961 7.21318 11.2051 7.21578 11.82C7.20744 12.6766 7.46993 13.5139 7.96578 14.2125C8.00183 14.2526 8.02752 14.3009 8.04059 14.3532C8.05367 14.4055 8.05373 14.4602 8.04078 14.5125C7.95828 14.8425 7.77828 15.5625 7.74828 15.705C7.71828 15.8475 7.59078 15.9375 7.39578 15.8475C6.08328 15.2325 5.26578 13.32 5.26578 11.775C5.26578 8.4675 7.67328 5.4225 12.2033 5.4225C15.8408 5.4225 18.6758 8.0175 18.6758 11.49C18.6758 15.105 16.4258 18.015 13.2233 18.015C12.7538 18.0313 12.2877 17.9301 11.8672 17.7206C11.4468 17.511 11.0854 17.1997 10.8158 16.815L10.1633 19.3125C9.85049 20.2831 9.41175 21.2085 8.85828 22.065C9.87811 22.3664 10.9374 22.513 12.0008 22.5C14.7856 22.5 17.4563 21.3938 19.4254 19.4246C21.3945 17.4555 22.5008 14.7848 22.5008 12C22.5008 9.21523 21.3945 6.54451 19.4254 4.57538C17.4563 2.60625 14.7856 1.5 12.0008 1.5Z" fill="#11133E"/>
</svg>
