<svg width="103" height="42" viewBox="0 0 103 42" fill="none" xmlns="http://www.w3.org/2000/svg">
<g id="Logo">
<path id="Vector" d="M29.1711 9.7967C29.2401 9.89563 29.2553 9.9513 29.2626 10.0724C29.3074 10.8139 29.2696 11.5802 29.2699 12.3238L29.2706 16.8733C29.27 22.2115 29.2017 27.5584 29.2697 32.8956L25.5032 32.9027L25.4911 26.1758C25.4906 24.9071 25.4559 23.6284 25.4973 22.3614C25.6576 22.653 25.6145 31.7487 25.6181 32.703C26.7791 32.6538 27.9421 32.7357 29.1054 32.6687L29.1086 16.1761L29.0977 12.2094C29.0956 11.4575 28.9955 10.5239 29.1711 9.7967Z" fill="#1F1F1F"/>
<path id="Vector_2" d="M19.2716 9.9004C19.7479 9.82965 20.252 9.86124 20.7052 10.0288C20.7419 10.0423 20.7782 10.0567 20.8142 10.072C20.8502 10.0874 20.8858 10.1036 20.9209 10.1207C20.9561 10.1378 20.9908 10.1558 21.025 10.1747C21.0593 10.1936 21.0931 10.2133 21.1264 10.2339C21.1596 10.2544 21.1923 10.2758 21.2245 10.298C21.2567 10.3202 21.2883 10.3432 21.3193 10.367C21.3504 10.3907 21.3808 10.4153 21.4106 10.4406C21.4404 10.466 21.4695 10.492 21.498 10.5188C21.5265 10.5455 21.5543 10.573 21.5814 10.6012C21.6085 10.6294 21.6349 10.6582 21.6606 10.6877C21.6863 10.7173 21.7112 10.7475 21.7353 10.7782C21.7594 10.809 21.7828 10.8403 21.8054 10.8722C21.828 10.9042 21.8497 10.9366 21.8706 10.9696C21.8916 11.0027 21.9117 11.0363 21.9309 11.0703C21.9502 11.1043 21.9686 11.1388 21.9862 11.1737C22.0036 11.2087 22.0203 11.2441 22.036 11.2799C22.2854 11.8563 22.3122 12.5286 22.0742 13.1132C21.7567 13.8929 21.1401 14.277 20.3989 14.586C19.9049 14.6233 19.4655 14.643 18.9908 14.4653C18.9538 14.4513 18.9171 14.4364 18.8807 14.4206C18.8444 14.4047 18.8085 14.388 18.7731 14.3704C18.7376 14.3528 18.7025 14.3343 18.668 14.3149C18.6334 14.2956 18.5993 14.2753 18.5657 14.2543C18.5322 14.2332 18.4992 14.2114 18.4667 14.1887C18.4342 14.166 18.4023 14.1425 18.371 14.1182C18.3397 14.0939 18.3091 14.0688 18.279 14.043C18.2489 14.0172 18.2195 13.9907 18.1908 13.9635C18.1621 13.9362 18.134 13.9082 18.1067 13.8795C18.0793 13.8509 18.0527 13.8215 18.0268 13.7916C18.0009 13.7615 17.9758 13.7309 17.9515 13.6997C17.9271 13.6685 17.9035 13.6366 17.8807 13.6042C17.8579 13.5718 17.836 13.5388 17.8148 13.5053C17.7937 13.4718 17.7734 13.4378 17.7539 13.4032C17.7344 13.3687 17.7159 13.3338 17.6982 13.2983C17.6805 13.2629 17.6636 13.227 17.6477 13.1907C17.6324 13.1555 17.618 13.1199 17.6044 13.084C17.5908 13.048 17.5781 13.0117 17.5663 12.9752C17.5545 12.9386 17.5436 12.9018 17.5335 12.8647C17.5235 12.8276 17.5143 12.7903 17.5061 12.7527C17.4979 12.7152 17.4905 12.6775 17.4841 12.6396C17.4777 12.6017 17.4723 12.5637 17.4677 12.5256C17.4631 12.4874 17.4594 12.4492 17.4567 12.4109C17.454 12.3725 17.4522 12.3341 17.4513 12.2957C17.4504 12.2573 17.4505 12.2189 17.4514 12.1805C17.4525 12.142 17.4544 12.1037 17.4572 12.0654C17.4601 12.0271 17.4639 11.9889 17.4686 11.9508C17.4733 11.9126 17.4789 11.8745 17.4853 11.8367C17.4919 11.7988 17.4993 11.7612 17.5077 11.7236C17.5161 11.6861 17.5253 11.6488 17.5355 11.6118C17.5456 11.5747 17.5567 11.5379 17.5686 11.5014C17.5805 11.4649 17.5933 11.4287 17.607 11.3928C17.9147 10.601 18.5318 10.2233 19.2716 9.9004Z" fill="#1F1F1F"/>
<path id="Vector_3" d="M34.2995 9.9132C34.7716 9.83514 35.253 9.8537 35.7065 10.0134C35.744 10.0265 35.7811 10.0406 35.8178 10.0557C35.8545 10.0707 35.8909 10.0866 35.9269 10.1035C35.9628 10.1203 35.9983 10.138 36.0333 10.1566C36.0684 10.1753 36.103 10.1947 36.137 10.2151C36.1711 10.2354 36.2047 10.2566 36.2377 10.2787C36.2707 10.3008 36.3031 10.3236 36.335 10.3472C36.3668 10.3709 36.3981 10.3953 36.4287 10.4206C36.4594 10.4458 36.4893 10.4718 36.5187 10.4985C36.548 10.5253 36.5767 10.5527 36.6047 10.5809C36.6326 10.6091 36.6598 10.6379 36.6863 10.6675C36.7128 10.697 36.7386 10.7272 36.7636 10.758C36.7886 10.7888 36.8128 10.8202 36.8362 10.8523C36.8597 10.8843 36.8823 10.917 36.904 10.9502C36.9258 10.9833 36.9467 11.017 36.9668 11.0512C36.9869 11.0855 37.0062 11.1202 37.0246 11.1554C37.0429 11.1906 37.0603 11.2262 37.0769 11.2623C37.0936 11.2979 37.1094 11.3338 37.1242 11.3702C37.1391 11.4066 37.153 11.4433 37.166 11.4804C37.1791 11.5175 37.1911 11.5548 37.2022 11.5925C37.2133 11.6302 37.2235 11.6681 37.2327 11.7064C37.2418 11.7446 37.2501 11.7829 37.2573 11.8215C37.2645 11.8602 37.2707 11.899 37.276 11.9379C37.2813 11.9768 37.2855 12.0159 37.2888 12.055C37.2921 12.0941 37.2944 12.1333 37.2957 12.1727C37.297 12.2119 37.2973 12.2512 37.2966 12.2905C37.2959 12.3298 37.2942 12.369 37.2916 12.4082C37.2888 12.4474 37.2851 12.4865 37.2805 12.5255C37.2758 12.5645 37.2702 12.6034 37.2636 12.6421C37.2569 12.6808 37.2492 12.7193 37.2406 12.7577C37.2321 12.796 37.2225 12.8341 37.212 12.872C37.2015 12.9098 37.19 12.9473 37.1776 12.9846C37.1651 13.0219 37.1517 13.0589 37.1374 13.0954C36.8251 13.8819 36.2012 14.2667 35.4623 14.5855C34.9981 14.6144 34.572 14.641 34.1227 14.4909C34.085 14.4784 34.0476 14.465 34.0106 14.4506C33.9735 14.4362 33.9369 14.4209 33.9006 14.4047C33.8643 14.3885 33.8285 14.3714 33.7931 14.3534C33.7576 14.3354 33.7227 14.3165 33.6882 14.2968C33.6538 14.277 33.6198 14.2564 33.5863 14.235C33.5529 14.2135 33.52 14.1912 33.4877 14.1681C33.4554 14.145 33.4237 14.1211 33.3925 14.0963C33.3614 14.0717 33.331 14.0462 33.3011 14.02C33.2713 13.9938 33.2421 13.9668 33.2136 13.9391C33.1851 13.9114 33.1573 13.883 33.1302 13.854C33.1031 13.8249 33.0768 13.7951 33.0512 13.7648C33.0257 13.7343 33.0009 13.7033 32.9768 13.6716C32.9528 13.64 32.9296 13.6078 32.9072 13.575C32.8848 13.5422 32.8632 13.5088 32.8424 13.4749C32.8216 13.441 32.8018 13.4066 32.7828 13.3718C32.7638 13.3369 32.7456 13.3015 32.7284 13.2657C32.7106 13.229 32.6938 13.1919 32.678 13.1543C32.6621 13.1167 32.6472 13.0787 32.6334 13.0404C32.6195 13.0021 32.6066 12.9634 32.5947 12.9244C32.5828 12.8854 32.5719 12.8461 32.562 12.8065C32.5522 12.7669 32.5433 12.7271 32.5355 12.6871C32.5277 12.6471 32.521 12.6069 32.5152 12.5665C32.5095 12.5261 32.5048 12.4856 32.5012 12.445C32.4976 12.4044 32.495 12.3637 32.4934 12.3229C32.4919 12.2821 32.4914 12.2414 32.4919 12.2006C32.4925 12.1598 32.4941 12.1191 32.4968 12.0784C32.4995 12.0377 32.5032 11.9971 32.508 11.9566C32.5127 11.9161 32.5185 11.8757 32.5254 11.8355C32.5322 11.7953 32.5401 11.7553 32.549 11.7156C32.5579 11.6758 32.5679 11.6362 32.5788 11.5969C32.5897 11.5576 32.6017 11.5186 32.6147 11.48C32.6277 11.4413 32.6417 11.403 32.6566 11.3651C32.9644 10.5952 33.5671 10.2114 34.2995 9.9132Z" fill="#1F1F1F"/>
<path id="Vector_4" d="M33.0211 16.9552C34.2707 16.9216 35.5383 16.9361 36.7877 16.9768L36.7804 27.6324C36.7816 29.3731 36.8641 31.1558 36.7631 32.892L33.0372 32.8991C32.97 31.0499 33.0253 29.1784 33.0258 27.3268L33.0211 16.9552Z" fill="#1F1F1F"/>
<path id="Vector_5" d="M17.9633 16.9492C19.2183 16.9483 20.476 16.9313 21.7304 16.9702L21.7353 32.8935L17.958 32.9021L17.9633 16.9492Z" fill="#1F1F1F"/>
<path id="Vector_6" d="M25.4851 9.78693C26.7109 9.75874 27.9444 9.79219 29.171 9.79674C28.9954 10.524 29.0955 11.4575 29.0976 12.2095L29.1085 16.1762L29.1052 32.6688C27.942 32.7358 26.779 32.6539 25.618 32.703C25.6144 31.7488 25.6574 22.653 25.4972 22.3614C25.4528 21.0165 25.4937 19.656 25.4945 18.3096L25.4851 9.78693Z" fill="#1F1F1F"/>
<path id="Vector_7" d="M64.6207 16.7097C66.6239 16.6999 68.5463 17.148 70.1083 18.4609C71.7025 19.8006 72.5277 21.834 72.707 23.8739C72.9148 26.2465 72.475 28.7157 70.8987 30.5725C69.4651 32.2608 67.4812 32.9445 65.3321 33.1324C63.3576 33.1713 61.3735 32.7318 59.8229 31.4532C58.1509 30.0746 57.2888 28.0947 57.0811 25.9678C56.8538 23.6396 57.3445 21.1454 58.8647 19.3125C60.3815 17.4838 62.338 16.913 64.6207 16.7097ZM64.736 19.587C63.672 19.6953 62.7276 19.9982 62.0199 20.8641C60.8928 22.2433 60.7292 24.3865 60.9361 26.0838C61.0881 27.3305 61.5059 28.6792 62.5299 29.4864C63.3175 30.1072 64.1595 30.2494 65.1313 30.2485C66.2546 30.1064 67.1261 29.8496 67.8514 28.912C68.9736 27.4611 69.0405 25.1377 68.7854 23.4056C68.6096 22.2083 68.1805 20.9733 67.1591 20.2375C66.4481 19.7248 65.5974 19.5556 64.736 19.587Z" fill="#1F1F1F"/>
<path id="Vector_8" d="M82.1024 16.7171C84.0481 16.5772 86.0856 17.129 87.6119 18.3588C89.2703 19.6954 90.0919 21.6634 90.3149 23.7444C90.5647 26.0727 90.1142 28.6173 88.6012 30.4648C87.1614 32.2228 85.1953 32.9125 82.9963 33.1254C81.023 33.1764 79.0587 32.7546 77.4904 31.5041C75.8231 30.1741 74.9239 28.1939 74.7044 26.1004C74.4555 23.7183 74.9256 21.1574 76.485 19.2752C77.9141 17.5501 79.9454 16.9091 82.1024 16.7171ZM81.7911 19.6406C80.6876 19.9236 79.8981 20.3115 79.3004 21.3269C78.3378 22.9627 78.2888 25.4575 78.7696 27.2488C79.0497 28.2909 79.593 29.2301 80.5609 29.7752C81.4084 30.2526 82.2996 30.2877 83.2434 30.1869C84.2577 29.9773 85.0061 29.5673 85.594 28.6878C86.6511 27.1059 86.6948 24.7203 86.3139 22.921C86.0811 21.8267 85.6119 20.7662 84.6315 20.1455C83.7929 19.615 82.7572 19.5178 81.7911 19.6406Z" fill="#1F1F1F"/>
<path id="Vector_9" d="M0.449825 9.78493L4.2086 9.81232L4.18943 15.4723C4.18728 16.6235 4.12029 17.8133 4.25187 18.9567C5.2899 17.873 6.55718 17.0476 8.06052 16.8102C9.55689 16.5738 11.1647 16.8553 12.3952 17.7682C13.9306 18.9073 14.6702 20.8013 14.934 22.6393C15.3554 25.575 14.8706 28.5547 13.0609 30.9476C12.9249 31.0949 12.7848 31.2381 12.6405 31.3773C11.4312 32.553 9.885 33.1752 8.19317 33.1355C6.40428 33.0936 5.25662 32.2886 4.05811 31.0372C3.93385 31.6036 3.92323 32.2179 3.45819 32.6365C2.82142 33.2099 1.24904 32.9312 0.450985 32.8892C0.336442 25.194 0.466507 17.4821 0.449825 9.78493ZM7.2382 19.6479C5.89945 20.0002 5.10711 20.5776 4.20727 21.6163C4.18859 23.9989 4.18553 26.3815 4.19808 28.7639C5.05546 29.616 5.9825 30.2495 7.24551 30.2593C7.55631 30.2618 7.87023 30.2438 8.17479 30.1813C9.19337 29.8932 9.9172 29.3244 10.4318 28.4034C11.3948 26.6799 11.4527 23.9962 10.9055 22.1355C10.6529 21.2764 10.1765 20.4706 9.37277 20.0229C8.7137 19.6557 7.97327 19.6277 7.2382 19.6479Z" fill="#1F1F1F"/>
<path id="Vector_10" d="M40.4894 9.78783C41.7196 9.70674 43.0479 9.73537 44.2793 9.80157C44.2635 12.839 44.1986 15.9005 44.3057 18.9356C45.3842 17.8262 46.6559 17.0071 48.2102 16.7877C49.7255 16.574 51.2948 16.8678 52.521 17.8144C54.0543 18.9981 54.7809 20.9742 55.0138 22.8397C55.3689 25.6852 54.9 28.6619 53.1011 30.958C52.9358 31.1373 52.7688 31.3152 52.5905 31.4818C52.5164 31.552 52.4404 31.6203 52.3628 31.6867C52.2852 31.7531 52.2059 31.8174 52.1249 31.8798C52.0441 31.9422 51.9616 32.0025 51.8777 32.0606C51.7937 32.1188 51.7083 32.1748 51.6215 32.2287C51.5347 32.2825 51.4466 32.3342 51.3571 32.3836C51.2677 32.4329 51.1771 32.48 51.0852 32.5248C50.9934 32.5696 50.9005 32.612 50.8065 32.652C50.7126 32.6921 50.6177 32.7298 50.5218 32.765C50.4259 32.8003 50.3292 32.8331 50.2317 32.8634C50.1342 32.8938 50.0359 32.9216 49.9369 32.9469C49.838 32.9723 49.7384 32.9952 49.6383 33.0154C49.5382 33.0357 49.4376 33.0535 49.3366 33.0687C49.2356 33.0839 49.1342 33.0966 49.0325 33.1066C48.9309 33.1167 48.8291 33.1241 48.727 33.129C48.625 33.1339 48.5229 33.1363 48.4208 33.136C48.3186 33.1357 48.2165 33.1328 48.1145 33.1273C46.4166 33.0498 45.2058 32.2566 44.0886 31.0286C44.0029 31.591 43.9587 32.2117 43.5149 32.6248C42.8824 33.2138 41.3174 32.9363 40.5036 32.8885C40.4012 25.1931 40.5034 17.4851 40.4894 9.78783ZM47.2935 19.6524C46.0235 19.9774 45.0948 20.5766 44.275 21.6025C44.2317 23.9938 44.311 26.3872 44.2663 28.7781C45.074 29.628 45.9769 30.2366 47.1996 30.2575C47.5301 30.2631 47.8677 30.253 48.193 30.1926C49.2385 29.8778 49.988 29.3549 50.5084 28.3731C51.4461 26.6045 51.5101 23.8875 50.9151 22.0059C50.6552 21.184 50.1606 20.3923 49.3733 19.9894C48.7313 19.6608 48.0009 19.617 47.2935 19.6524Z" fill="#1F1F1F"/>
</g>
</svg>
