<svg width="40" height="40" viewBox="0 0 40 40" fill="none" xmlns="http://www.w3.org/2000/svg">
<g id="Icons">
<g id="SVGRepo_iconCarrier">
<g id="Group">
<path id="Vector" d="M16.6942 6.38084L16.6886 6.3713L16.6811 6.3609L12.9015 0.958923L9.11493 6.37044L9.10839 6.38084C8.34897 7.5654 7.83368 8.93494 7.83106 10.3114C7.83061 10.9029 7.92888 11.4951 8.15073 12.0601C8.37169 12.6251 8.71756 13.1606 9.19358 13.6329H9.19403C10.2158 14.6472 11.5617 15.1571 12.9015 15.1563C14.2413 15.1571 15.5868 14.6472 16.6091 13.6329C17.0855 13.1606 17.4314 12.6251 17.6523 12.0605C17.8742 11.4951 17.972 10.9029 17.972 10.3119C17.9694 8.93497 17.4541 7.5654 16.6942 6.38084ZM16.4829 11.6091C16.323 12.0159 16.0789 12.3976 15.7221 12.7525C14.9418 13.5263 13.9247 13.9106 12.9015 13.9115C11.8783 13.9106 10.8613 13.5263 10.0809 12.7525C9.72368 12.3976 9.48 12.0159 9.31974 11.6086C9.16035 11.2018 9.08567 10.7672 9.08567 10.3114C9.08262 9.25557 9.50096 8.08402 10.1626 7.05673L12.9015 3.14171L15.6413 7.05759C16.3021 8.08488 16.72 9.25599 16.7174 10.3119C16.7174 10.7677 16.6427 11.2022 16.4829 11.6091Z" fill="black"/>
<path id="Vector_2" d="M11.4851 7.55237C10.8305 8.27419 9.78814 10.1741 10.4427 11.4968C11.1738 12.9743 12.1686 12.096 11.7035 11.1606C10.8065 9.35651 11.4851 7.55237 11.4851 7.55237Z" fill="black"/>
</g>
</g>
<g id="SVGRepo_iconCarrier_2">
<g id="Group_2">
<path id="Vector_3" d="M30.8915 13.4795L30.8858 13.47L30.8784 13.4596L27.0988 8.05762L23.3122 13.4691L23.3057 13.4795C22.5462 14.6641 22.0309 16.0336 22.0283 17.4101C22.0279 18.0015 22.1261 18.5938 22.348 19.1588C22.569 19.7238 22.9148 20.2593 23.3908 20.7316H23.3913C24.4131 21.7459 25.759 22.2558 27.0988 22.255C28.4386 22.2558 29.784 21.7459 30.8063 20.7316C31.2828 20.2593 31.6286 19.7238 31.8496 19.1592C32.0715 18.5938 32.1693 18.0015 32.1693 17.4106C32.1666 16.0337 31.6514 14.6641 30.8915 13.4795ZM30.6801 18.7078C30.5203 19.1146 30.2762 19.4963 29.9194 19.8512C29.139 20.625 28.122 21.0093 27.0988 21.0102C26.0756 21.0093 25.0585 20.625 24.2782 19.8512C23.9209 19.4963 23.6773 19.1146 23.517 18.7073C23.3576 18.3005 23.2829 17.8659 23.2829 17.4101C23.2799 16.3543 23.6982 15.1827 24.3598 14.1554L27.0988 10.2404L29.8386 14.1563C30.4993 15.1836 30.9173 16.3547 30.9146 17.4106C30.9146 17.8664 30.84 18.3009 30.6801 18.7078Z" fill="black"/>
<path id="Vector_4" d="M25.6824 14.6511C25.0278 15.3729 23.9854 17.2728 24.64 18.5956C25.371 20.073 26.3658 19.1948 25.9007 18.2594C25.0038 16.4553 25.6824 14.6511 25.6824 14.6511Z" fill="black"/>
</g>
</g>
<g id="Group 132869">
<path id="Vector_5" d="M2.86162 30.0505C2.34443 30.0505 1.99966 30.3895 1.99966 30.8981C1.99966 31.4066 2.34443 31.7456 2.86162 31.7456L5.44761 31.7456C5.9648 31.7456 6.30957 31.4066 6.30957 30.8981C6.30957 30.3895 5.9648 30.0505 5.44761 30.0505L2.86162 30.0505Z" fill="black"/>
<path id="Vector_6" d="M5.90362 33.8066C5.38642 33.8066 5.04166 34.1456 5.04166 34.6542C5.04166 35.1627 5.38642 35.5017 5.90362 35.5017L8.4896 35.5017C9.0068 35.5017 9.35156 35.1627 9.35156 34.6542C9.35156 34.1456 9.0068 33.8066 8.4896 33.8066L5.90362 33.8066Z" fill="black"/>
<path id="Vector_7" d="M2.86132 37.5459C2.34412 37.5459 1.99936 37.8849 1.99936 38.3935C1.99936 38.902 2.34412 39.241 2.86132 39.241L36.9857 39.241C37.5029 39.241 37.8477 38.902 37.8477 38.3934C37.8477 37.8849 37.5029 37.5459 36.9857 37.5459L2.86132 37.5459Z" fill="black"/>
<path id="Vector_8" d="M2.86132 26.3113C2.34412 26.3113 1.99936 26.6503 1.99936 27.1588C1.99936 27.6674 2.34412 28.0064 2.86132 28.0064L36.9857 28.0064C37.5029 28.0064 37.8477 27.6674 37.8477 27.1588C37.8477 26.6503 37.5029 26.3113 36.9857 26.3113L2.86132 26.3113Z" fill="black"/>
<path id="Vector_9" d="M9.19951 30.0505C8.68232 30.0505 8.33755 30.3895 8.33755 30.8981C8.33755 31.4066 8.68232 31.7456 9.19951 31.7456L11.7855 31.7456C12.3027 31.7456 12.6475 31.4066 12.6475 30.8981C12.6475 30.3895 12.3027 30.0505 11.7855 30.0505L9.19951 30.0505Z" fill="black"/>
<path id="Vector_10" d="M12.242 33.8066C11.7248 33.8066 11.38 34.1456 11.38 34.6542C11.38 35.1627 11.7248 35.5017 12.242 35.5017L14.828 35.5017C15.3452 35.5017 15.6899 35.1627 15.6899 34.6542C15.6899 34.1456 15.3452 33.8066 14.828 33.8066L12.242 33.8066Z" fill="black"/>
<path id="Vector_11" d="M15.5379 30.0505C15.0207 30.0505 14.6759 30.3895 14.6759 30.8981C14.6759 31.4066 15.0207 31.7456 15.5379 31.7456L18.1239 31.7456C18.6411 31.7456 18.9858 31.4066 18.9858 30.8981C18.9858 30.3895 18.6411 30.0505 18.1239 30.0505L15.5379 30.0505Z" fill="black"/>
<path id="Vector_12" d="M18.5799 33.8066C18.0627 33.8066 17.7179 34.1456 17.7179 34.6542C17.7179 35.1627 18.0627 35.5017 18.5799 35.5017L21.1659 35.5017C21.6831 35.5017 22.0278 35.1627 22.0278 34.6542C22.0278 34.1456 21.6831 33.8066 21.1659 33.8066L18.5799 33.8066Z" fill="black"/>
<path id="Vector_13" d="M21.8758 30.0505C21.3586 30.0505 21.0138 30.3895 21.0138 30.8981C21.0138 31.4066 21.3586 31.7456 21.8758 31.7456L24.4618 31.7456C24.979 31.7456 25.3237 31.4066 25.3237 30.8981C25.3237 30.3895 24.979 30.0505 24.4618 30.0505L21.8758 30.0505Z" fill="black"/>
<path id="Vector_14" d="M24.9178 33.8066C24.4006 33.8066 24.0558 34.1456 24.0558 34.6542C24.0558 35.1627 24.4006 35.5017 24.9178 35.5017L27.5038 35.5017C28.021 35.5017 28.3657 35.1627 28.3657 34.6542C28.3657 34.1456 28.021 33.8066 27.5038 33.8066L24.9178 33.8066Z" fill="black"/>
<path id="Vector_15" d="M28.2137 30.0505C27.6965 30.0505 27.3517 30.3895 27.3517 30.8981C27.3517 31.4066 27.6965 31.7456 28.2137 31.7456L30.7997 31.7456C31.3169 31.7456 31.6616 31.4066 31.6616 30.8981C31.6616 30.3895 31.3169 30.0505 30.7997 30.0505L28.2137 30.0505Z" fill="black"/>
<path id="Vector_16" d="M31.2562 33.8066C30.739 33.8066 30.3942 34.1456 30.3942 34.6542C30.3942 35.1627 30.739 35.5017 31.2562 35.5017L33.8421 35.5017C34.3593 35.5017 34.7041 35.1627 34.7041 34.6542C34.7041 34.1456 34.3593 33.8066 33.8421 33.8066L31.2562 33.8066Z" fill="black"/>
<path id="Vector_17" d="M34.5521 30.0505C34.0349 30.0505 33.6901 30.3895 33.6901 30.8981C33.6901 31.4066 34.0349 31.7456 34.5521 31.7456L37.138 31.7456C37.6552 31.7456 38 31.4066 38 30.8981C38 30.3895 37.6552 30.0505 37.138 30.0505L34.5521 30.0505Z" fill="black"/>
</g>
</g>
</svg>
