<svg width="40" height="40" viewBox="0 0 40 40" fill="none" xmlns="http://www.w3.org/2000/svg">
<g id="Icons">
<g id="SVGRepo_iconCarrier">
<path id="Vector" d="M20 23.75V15" stroke="black" stroke-width="1.5" stroke-miterlimit="10" stroke-linecap="round" stroke-linejoin="round"/>
<path id="Vector_2" d="M23.75 23.75V15" stroke="black" stroke-width="1.5" stroke-miterlimit="10" stroke-linecap="round" stroke-linejoin="round"/>
<path id="Vector_3" d="M27.5 23.75V16.25" stroke="black" stroke-width="1.5" stroke-miterlimit="10" stroke-linecap="round" stroke-linejoin="round"/>
<path id="Vector_4" d="M28.7502 36.25C30.3752 32.125 31.2502 27.75 31.2502 23.25V16.875C31.2502 15.875 30.3752 15 29.3752 15C28.3752 15 27.5002 15.875 27.5002 16.875V15.625C27.5002 14.625 26.6252 13.75 25.6252 13.75C24.6252 13.75 23.7502 14.625 23.7502 15.625V14.375C23.7502 13.375 22.8752 12.5 21.8752 12.5C20.8752 12.5 20.0002 13.375 20.0002 14.375V15.625C20.0002 14.625 19.1252 13.75 18.1252 13.75C17.1252 13.75 16.2502 14.625 16.2502 15.625V25V28L13.1252 24.875C12.3752 24.125 11.2502 24 10.5002 24.625C9.50018 25.375 9.37518 26.875 10.2502 27.75L18.7502 36.25" stroke="black" stroke-width="1.5" stroke-miterlimit="10" stroke-linecap="round" stroke-linejoin="round"/>
<path id="Vector_5" d="M29.6251 33.75C34.6251 34 38.7501 30 38.7501 25C38.7501 23.5 38.3751 22.125 37.7501 20.875C36.7501 19 36.6251 16.875 37.2501 15C37.6251 13.75 37.7501 12.5 37.5001 11.125C36.8751 7.50002 34.0001 4.62502 30.3751 4.00002C28.3751 3.62502 26.3751 4.00002 24.7501 4.87502C22.5001 5.87502 20.0001 6.12502 17.6251 5.37502C16.3751 5.00002 14.8751 4.87502 13.3751 5.12502C9.87506 5.75002 7.00006 8.62502 6.37506 12.125V12.25C5.75006 16.125 4.37506 19.75 2.37506 23.25C1.37506 25 1.00006 27 1.37506 29.125C2.00006 32.625 4.75006 35.5 8.25006 36.125C11.3751 36.75 14.2501 35.75 16.2501 33.75" stroke="black" stroke-width="1.5" stroke-miterlimit="10" stroke-linecap="round" stroke-linejoin="round"/>
</g>
</g>
</svg>
