<svg width="40" height="40" viewBox="0 0 40 40" fill="none" xmlns="http://www.w3.org/2000/svg">
<g id="Icons">
<g id="SVGRepo_iconCarrier">
<path id="Vector" d="M28.4061 2.84998C26.6717 2.84998 25.2811 4.2406 25.2811 5.97498C25.2811 7.71169 26.6717 9.10154 28.4061 9.10154C30.1404 9.10154 31.5311 7.71169 31.5311 5.97498C31.5311 4.2406 30.1404 2.84998 28.4061 2.84998ZM23.9764 6.91013C19.8201 8.3906 15.4842 9.6406 10.7732 10.4453C10.9139 10.8047 10.992 11.1953 10.992 11.6015C10.992 11.9765 10.9295 12.3359 10.8045 12.664C18.3201 13.6719 25.0857 15.4765 30.9451 18.2812C31.0701 17.8203 31.2967 17.3984 31.5936 17.039C26.0311 14.3594 19.6873 12.5703 12.7264 11.5156C16.8826 10.6875 20.7576 9.53123 24.4764 8.21873C24.242 7.81248 24.0701 7.37576 23.9764 6.91013ZM31.617 9.16404C31.2811 9.49998 30.8982 9.78904 30.4764 10.0078C31.6717 11.9453 32.5076 13.9609 32.9607 16.0859C33.2967 15.9687 33.6639 15.8984 34.0389 15.8984C34.1482 15.8984 34.2576 15.9062 34.3592 15.914C33.867 13.5469 32.9373 11.2969 31.617 9.16404ZM7.78887 9.80466C6.78809 9.80466 5.99199 10.6015 5.99199 11.6015C5.99199 12.6015 6.78809 13.3984 7.78887 13.3984C8.78887 13.3984 9.58574 12.6015 9.58574 11.6015C9.58574 10.6015 8.78887 9.80466 7.78887 9.80466ZM10.4998 13.289C10.2498 13.6953 9.91387 14.039 9.51543 14.2969C12.0232 16.8437 14.6795 19.4453 18.9373 20.5781C18.9373 20.5078 18.9295 20.4297 18.9295 20.3594C18.9295 19.9453 19.0311 19.5547 19.2029 19.2031C15.3357 18.1484 12.9529 15.7812 10.4998 13.289ZM6.04668 14.2812C4.34668 19.5781 3.92793 25 3.52402 30.375C3.69043 30.3359 3.86309 30.3203 4.03965 30.3203C4.35137 30.3203 4.6498 30.375 4.92637 30.4844C5.33184 25.1406 5.75215 19.8594 7.3709 14.7734C6.88809 14.7109 6.43809 14.539 6.04668 14.2812ZM34.0389 17.3047C33.0389 17.3047 32.242 18.1015 32.242 19.1015C32.242 20.1015 33.0389 20.8984 34.0389 20.8984C35.0389 20.8984 35.8357 20.1015 35.8357 19.1015C35.8357 18.1015 35.0389 17.3047 34.0389 17.3047ZM30.8357 19.039C28.617 19.4922 26.4139 19.8828 24.117 19.8594C24.1482 20.0234 24.1639 20.1875 24.1639 20.3594C24.1639 20.6719 24.1092 20.9765 23.9998 21.2578C26.4998 21.3047 28.8436 20.8906 31.1248 20.414C30.9373 20.0156 30.8357 19.5703 30.8357 19.1015V19.039ZM21.5467 19.1484C20.867 19.1484 20.3357 19.6797 20.3357 20.3594C20.3357 21.039 20.867 21.5703 21.5467 21.5703C22.2264 21.5703 22.7576 21.039 22.7576 20.3594C22.7576 19.6797 22.2264 19.1484 21.5467 19.1484ZM31.1717 20.5234C26.8279 24.1094 22.8436 27.8984 19.992 32.2968C20.4529 32.4375 20.867 32.6875 21.2107 33.0078C23.9373 28.8281 27.7889 25.1328 32.0545 21.6094C31.6873 21.3203 31.3826 20.9453 31.1717 20.5234ZM19.2967 21.6953C15.5545 25.3203 10.7342 28.1953 5.79277 31.0312C6.1334 31.3594 6.3834 31.7812 6.4998 32.25C11.4686 29.4062 16.4061 26.4765 20.3123 22.664C19.8904 22.4375 19.5389 22.1015 19.2967 21.6953ZM33.3123 22.2187C33.4139 24.4687 33.7811 26.6953 34.4295 28.875C34.8045 28.6094 35.2654 28.4375 35.7576 28.4062C35.1639 26.375 34.8279 24.3203 34.7264 22.2265C34.4998 22.2812 34.2732 22.3047 34.0389 22.3047C33.7889 22.3047 33.5467 22.2734 33.3123 22.2187ZM35.9139 29.8047C35.2576 29.8047 34.742 30.3203 34.742 30.9765C34.742 31.6328 35.2576 32.1484 35.9139 32.1484C36.5701 32.1484 37.0857 31.6328 37.0857 30.9765C37.0857 30.3203 36.5701 29.8047 35.9139 29.8047ZM4.03965 31.7265C3.40918 31.7265 2.91309 32.2265 2.91309 32.8515C2.91309 33.4844 3.40918 33.9844 4.03965 33.9844C4.67012 33.9844 5.16621 33.4844 5.16621 32.8515C5.16621 32.2265 4.67012 31.7265 4.03965 31.7265ZM33.4529 31.75C29.9607 33.664 26.1248 34.2969 22.1326 34.5312C22.2029 34.7969 22.242 35.0703 22.242 35.3515C22.242 35.5547 22.2186 35.75 22.1873 35.9375C26.3357 35.6953 30.4529 35.0312 34.242 32.9297C33.8748 32.6172 33.6014 32.2109 33.4529 31.75ZM6.55527 32.5625C6.56621 32.6562 6.57246 32.75 6.57246 32.8515C6.57246 33.2422 6.48262 33.6094 6.32324 33.9453L15.8436 35.5312C15.8357 35.4687 15.8357 35.414 15.8357 35.3515C15.8357 34.9297 15.9217 34.5234 16.0701 34.1484L6.55527 32.5625ZM19.0389 33.5547C18.0389 33.5547 17.242 34.3515 17.242 35.3515C17.242 36.3515 18.0389 37.1484 19.0389 37.1484C20.0389 37.1484 20.8357 36.3515 20.8357 35.3515C20.8357 34.3515 20.0389 33.5547 19.0389 33.5547Z" fill="black"/>
</g>
</g>
</svg>
