<svg width="40" height="40" viewBox="0 0 40 40" fill="none" xmlns="http://www.w3.org/2000/svg">
<g id="Icons" clip-path="url(#clip0_51_4150)">
<g id="SVGRepo_iconCarrier">
<g id="Group">
<g id="Group_2">
<g id="Group_3">
<path id="Vector" d="M37.9038 7.98549H24.761L21.2484 4.97471C22.0527 4.51539 22.5983 3.64954 22.5983 2.66181C22.5983 1.19782 21.4005 0 19.9364 0C18.4724 0 17.2746 1.19782 17.2746 2.66181C17.2746 3.59901 17.766 4.42657 18.5033 4.90118L14.3909 7.98549H1.96905C0.83775 7.98549 -0.0273193 8.85056 -0.0273193 9.98187V11.3128C-0.0273193 12.4441 0.83775 13.3092 1.96905 13.3092H12.9365V14.6401C12.9365 15.0394 13.2026 15.3056 13.6019 15.3056C14.0012 15.3056 14.2673 15.0394 14.2673 14.6401V13.3092H25.5801V14.6401C25.5801 15.0394 25.8463 15.3056 26.2456 15.3056C26.6448 15.3056 26.911 15.0394 26.911 14.6401V13.3092H31.9146H37.9036C39.0349 13.3092 39.9 12.4441 39.9 11.3128V9.98187C39.9002 8.85056 39.0351 7.98549 37.9038 7.98549ZM22.7313 7.98549H20.6019V6.16022L22.7313 7.98549ZM19.9364 1.33094C20.6684 1.33094 21.2674 1.92985 21.2674 2.66188C21.2674 3.39391 20.6684 3.99283 19.9364 3.99283C19.2044 3.99283 18.6055 3.39391 18.6055 2.66188C18.6055 1.92985 19.2044 1.33094 19.9364 1.33094ZM19.271 5.98912V7.98549H16.6092L19.271 5.98912ZM38.5692 11.3128C38.5692 11.7121 38.3031 11.9782 37.9038 11.9782H1.96905C1.56978 11.9782 1.30362 11.7121 1.30362 11.3128V9.98187C1.30362 9.58259 1.56978 9.31644 1.96905 9.31644H37.9038C38.3031 9.31644 38.5692 9.58259 38.5692 9.98187V11.3128Z" fill="black"/>
<path id="Vector_2" d="M13.5561 19.9637C13.9553 19.9637 14.2215 19.6976 14.2215 19.2983V17.3019C14.2215 16.9026 13.9553 16.6365 13.5561 16.6365C13.1568 16.6365 12.8906 16.9026 12.8906 17.3019V19.2983C12.8905 19.6976 13.1568 19.9637 13.5561 19.9637Z" fill="black"/>
<path id="Vector_3" d="M12.8906 28.6147C12.8906 29.014 13.1568 29.2801 13.5561 29.2801C13.9553 29.2801 14.2215 29.014 14.2215 28.6147V26.6183C14.2215 26.219 13.9553 25.9529 13.5561 25.9529C13.1568 25.9529 12.8906 26.219 12.8906 26.6183V28.6147Z" fill="black"/>
<path id="Vector_4" d="M12.8906 23.9565C12.8906 24.3558 13.1568 24.6219 13.5561 24.6219C13.9553 24.6219 14.2215 24.3558 14.2215 23.9565V21.9601C14.2215 21.5608 13.9553 21.2947 13.5561 21.2947C13.1568 21.2947 12.8906 21.5608 12.8906 21.9601V23.9565Z" fill="black"/>
<path id="Vector_5" d="M14.2217 31.9989V31.2765C14.2217 30.8772 13.9555 30.6111 13.5562 30.6111C13.1569 30.6111 12.8908 30.8772 12.8908 31.2765V31.9989C11.0087 32.3182 9.56348 33.9654 9.56348 35.9347C9.56348 38.1307 11.3602 39.9274 13.5562 39.9274C15.7522 39.9274 17.549 38.1307 17.549 35.9347C17.549 33.9654 16.1037 32.3182 14.2217 31.9989ZM13.5562 38.5965C12.0922 38.5965 10.8944 37.3987 10.8944 35.9347C10.8944 34.4707 12.0922 33.2729 13.5562 33.2729C15.0202 33.2729 16.218 34.4707 16.218 35.9347C16.218 37.3987 15.0202 38.5965 13.5562 38.5965Z" fill="black"/>
<path id="Vector_6" d="M25.5347 26.6183C25.5347 27.0176 25.8008 27.2838 26.2001 27.2838C26.5994 27.2838 26.8655 27.0176 26.8655 26.6183V24.622C26.8655 24.2227 26.5994 23.9565 26.2001 23.9565C25.8008 23.9565 25.5347 24.2227 25.5347 24.622V26.6183Z" fill="black"/>
<path id="Vector_7" d="M26.2001 19.2983C26.5994 19.2983 26.8655 19.0322 26.8655 18.6329V16.6365C26.8655 16.2372 26.5994 15.9711 26.2001 15.9711C25.8008 15.9711 25.5347 16.2372 25.5347 16.6365V18.6329C25.5347 19.0321 25.8008 19.2983 26.2001 19.2983Z" fill="black"/>
<path id="Vector_8" d="M25.5347 22.6256C25.5347 23.0248 25.8008 23.291 26.2001 23.291C26.5994 23.291 26.8655 23.0248 26.8655 22.6256V20.6292C26.8655 20.2299 26.5994 19.9637 26.2001 19.9637C25.8008 19.9637 25.5347 20.2299 25.5347 20.6292V22.6256Z" fill="black"/>
<path id="Vector_9" d="M29.5275 37.6649C28.2632 36.7999 27.5311 35.3358 27.5311 33.8718C27.5311 32.4078 28.2632 30.9438 29.5275 30.0787C29.7271 29.9456 29.7937 29.746 29.7937 29.4798C29.7937 29.2136 29.594 29.014 29.3944 28.9474C28.7955 28.7478 28.13 28.6147 27.5311 28.6147C27.3057 28.6147 27.0839 28.6305 26.8657 28.658V28.6147C26.8657 28.2154 26.5995 27.9492 26.2003 27.9492C25.801 27.9492 25.5348 28.2154 25.5348 28.6147V29.0067C23.5888 29.8007 22.2075 31.7155 22.2075 33.9383C22.2075 36.8663 24.6032 39.262 27.5312 39.262C28.1301 39.262 28.7956 39.1288 29.3945 38.7962C29.5941 38.7296 29.7937 38.53 29.7937 38.2638C29.8602 38.0642 29.7271 37.798 29.5275 37.6649ZM27.5311 37.9311C25.3351 37.9311 23.5384 36.1344 23.5384 33.9383C23.5384 32.1619 24.7144 30.6471 26.3262 30.1331C26.3707 30.1247 26.4129 30.1121 26.4529 30.0957C26.7963 29.9987 27.1577 29.9456 27.5311 29.9456C27.5977 29.9456 27.6642 29.9456 27.7308 29.9456C26.7326 31.0103 26.2002 32.4744 26.2002 33.9383C26.2002 35.4023 26.7326 36.8664 27.7308 37.9311C27.6642 37.9311 27.5977 37.9311 27.5311 37.9311Z" fill="black"/>
</g>
</g>
</g>
</g>
</g>
<defs>
<clipPath id="clip0_51_4150">
<rect width="40" height="40" fill="white"/>
</clipPath>
</defs>
</svg>
