<svg width="387" height="119" viewBox="0 0 387 119" fill="none" xmlns="http://www.w3.org/2000/svg">
<g clip-path="url(#clip0_235_2358)">
<path d="M342.652 90.8518C338.997 105.381 323.005 111.557 309.244 108.323C294.099 104.761 286.226 89.3446 284.503 75.0242C282.033 54.517 295.288 14.4884 323.148 22.5932L321.856 19.3828C314.747 41.4274 289.447 57.1333 266.541 49.6021C240.983 41.1571 232.951 4.01111 252.611 -14.1734L248.715 -17.2872C233.881 8.70007 196.673 6.64857 175.252 -9.47519C150.289 -28.2414 147.828 -64.1403 153.551 -92.3492C156.609 -107.648 161.72 -125.289 171.369 -137.853C176.576 -144.634 184.23 -150.892 193.312 -150.027C200.319 -149.377 208.942 -143.967 209.747 -136.402C211.139 -123.348 183.084 -108.543 173.233 -102.724C159.777 -94.7999 145.506 -88.3486 130.668 -83.4815C97.6517 -72.5618 62.5547 -69.4454 28.1326 -74.3768C23.9189 -74.9857 22.9636 -68.4555 27.1869 -67.8947C86.5973 -59.4309 146.956 -74.6528 195.254 -110.28C205.515 -117.901 221.587 -129.231 213.155 -143.776C206.645 -155.084 191.506 -158.594 180.292 -152.88C163.977 -144.584 156.756 -124.397 151.86 -107.997C142.309 -76.0676 140.848 -34.0647 167.138 -9.26256C190.815 13.0157 235.835 15.6949 253.371 -15.2222C254.605 -17.3937 251.331 -20.0329 249.491 -18.3329C228.471 1.14753 233.819 39.6248 259.887 52.3579C285.711 64.9756 317.881 47.2739 326.22 21.3227C326.579 20.1937 326.3 18.5035 324.944 18.1156C290.561 8.18986 275.036 56.237 280.982 81.8754C284.703 97.9628 296.235 112.009 313.599 112.896C327.677 113.625 342.126 105.74 344.624 91.1627C344.89 89.8316 342.889 89.5817 342.565 90.8678L342.652 90.8518Z" fill="#A8EBD0"/>
</g>
<defs>
<clipPath id="clip0_235_2358">
<rect width="345.876" height="240.227" fill="white" transform="translate(339.164 118.369) rotate(-168.695)"/>
</clipPath>
</defs>
</svg>
