<svg width="206" height="121" viewBox="0 0 206 121" fill="none" xmlns="http://www.w3.org/2000/svg">
<path d="M203.216 30.154C203.64 15.1778 189.923 4.89489 175.801 4.27492C160.258 3.59385 148.497 16.2962 142.954 29.6121C135.013 48.6799 136.911 90.8033 165.925 90.5611L163.81 93.3004C162.949 70.1541 142.859 48.1732 118.768 49.2075C91.8775 50.4018 74.0696 83.9757 88.0585 106.812L83.4635 108.752C76.237 79.7149 39.868 71.5949 14.8752 81.3022C-14.242 92.5922 -26.3504 126.477 -28.4955 155.18C-29.7023 170.736 -29.5692 189.101 -23.6912 203.812C-20.5188 211.751 -14.8495 219.851 -5.87395 221.483C1.04644 222.758 10.8139 219.89 13.6416 212.827C18.5232 200.641 -4.46317 178.779 -12.3658 170.506C-23.1681 159.228 -35.1534 149.147 -48.1143 140.437C-76.9297 120.97 -109.865 108.448 -144.334 103.856C-148.555 103.299 -147.703 96.7544 -143.486 97.3604C-84.0071 105.332 -30.0421 136.359 6.77876 183.752C14.5874 193.872 26.9824 209.138 14.9216 220.849C5.5876 229.967 -9.93612 229.238 -19.1792 220.696C-32.6321 208.285 -34.105 186.896 -34.3681 169.783C-34.8987 136.46 -24.9088 95.6358 7.12408 78.8964C35.9567 63.8771 80.0147 73.5123 88.5054 108.028C89.1044 110.453 85.237 112.104 83.9267 109.969C68.9808 85.5164 84.5666 49.933 113.112 44.7499C141.391 39.6117 167.551 65.377 168.537 92.6174C168.577 93.8015 167.849 95.3526 166.439 95.3579C130.652 95.5832 128.745 45.1262 141.424 22.0626C149.369 7.58805 164.28 -2.80305 181.234 1.05486C194.981 4.17191 206.749 15.6815 205.198 30.3898C205.093 31.7431 203.099 31.4408 203.137 30.115L203.216 30.154Z" fill="#A8EBD0"/>
</svg>
