<svg width="346" height="211" viewBox="0 0 346 211" fill="none" xmlns="http://www.w3.org/2000/svg">
<path d="M2.50172 -25.5169C6.17195 -41.1121 24.0951 -49.7101 39.795 -48.226C57.0756 -46.591 66.4994 -31.6464 68.917 -17.0019C72.3828 3.96899 58.6614 47.368 26.8231 42.7465L28.3922 45.9059C35.7319 22.0313 63.8952 2.26172 90.0999 6.96298C119.34 12.252 129.649 49.7528 107.959 71.3284L112.476 74.0324C128.442 45.0076 170.678 42.0647 195.479 55.8964C224.379 71.9908 228.335 108.956 222.766 139.046C219.797 155.36 214.578 174.386 204.051 188.757C198.37 196.512 189.898 204.059 179.578 204.399C171.616 204.679 161.667 200.234 160.509 192.482C158.507 179.109 189.821 159.9 200.796 152.51C215.79 142.442 231.753 133.792 248.411 126.711C285.474 110.863 325.149 102.838 364.321 103.267C369.116 103.325 369.987 96.4099 365.182 96.4032C297.576 95.7116 229.665 119.759 176.086 163.364C164.704 172.683 146.858 186.647 156.885 200.609C164.631 211.471 181.903 213.053 194.426 205.587C212.647 194.742 220.174 172.782 225.19 155.075C234.978 120.596 235.268 76.7539 204.667 54.569C177.11 34.65 126.002 38.0061 107.132 72.5219C105.803 74.9465 109.6 77.2422 111.631 75.2247C134.819 52.1172 127.509 12.8671 97.5514 3.19212C67.8739 -6.39614 31.991 16.3839 23.3828 44.4856C23.0125 45.7076 23.3837 47.4257 24.9336 47.6438C64.2232 53.2678 80.2568 1.22763 72.6846 -24.6007C67.9453 -40.8087 54.4193 -53.8309 34.7109 -52.3836C18.7327 -51.2218 2.61324 -41.0581 0.256514 -25.571C-0.00181363 -24.1517 2.27409 -24.1649 2.59929 -25.5454L2.50172 -25.5169Z" fill="#9DE3CD"/>
</svg>
