<svg width="251" height="157" viewBox="0 0 251 157" fill="none" xmlns="http://www.w3.org/2000/svg">
<path d="M7.30639 136.406C-0.520939 127.77 2.38243 114.754 10.414 107.243C19.2551 98.9765 32.6314 100.533 42.644 105.598C56.9838 112.848 77.1735 138.701 59.9048 153.237L62.5405 153.786C51.3391 139.672 52.0909 116.518 66.8504 104.942C83.3457 92.0426 110.855 102.874 114.142 123.446L117.839 122.268C107.419 101.452 124.803 78.2538 144.484 71.3458C167.402 63.2866 191.701 77.1849 207.49 93.062C216.073 101.644 225.286 112.564 229.255 124.231C231.397 130.528 232.145 138.183 227.666 143.688C224.222 147.943 216.999 151.19 211.754 148.446C202.704 143.715 205.228 119.166 205.712 110.279C206.39 98.1494 208.373 86.1284 211.625 74.4238C218.805 48.3411 231.933 24.2787 249.979 4.12618C252.191 1.66151 248.377 -1.7748 246.191 0.716854C215.076 35.5194 198.882 81.1567 201.1 127.793C201.606 137.724 202.004 153.016 215.056 153.835C225.185 154.501 233.99 146.216 235.131 136.492C236.802 122.352 226.851 108.966 218.349 98.7203C201.803 78.7593 175.246 59.6886 147.847 66.0027C123.21 71.7141 102.048 99.6981 114.493 124.391C115.366 126.127 118.487 125.146 118.181 123.221C114.642 101.21 87.429 88.0668 67.9379 99.4454C48.6268 110.716 46.2027 139.177 59.4015 155.774C59.9773 156.494 61.1918 157.042 62.0282 156.332C83.2903 138.36 58.8899 107.577 39.7287 100.362C27.7102 95.8283 13.6417 97.2313 5.57469 108.088C-0.972504 116.886 -2.10385 129.641 6.25411 137.548C7.00085 138.295 8.02609 137.107 7.33335 136.343L7.30639 136.406Z" fill="#9DE3CD"/>
</svg>
